  0
SECTION
  2
HEADER
  9
$ACADVER
  1
AC1014
  9
$ACADMAINTVER
 70
     9
  9
$DWGCODEPAGE
  3
ANSI_1252
  9
$INSBASE
 10
0.0
 20
0.0
 30
0.0
  9
$EXTMIN
 10
1.000000000000000E+20
 20
1.000000000000000E+20
 30
1.000000000000000E+20
  9
$EXTMAX
 10
-1.000000000000000E+20
 20
-1.000000000000000E+20
 30
-1.000000000000000E+20
  9
$LIMMIN
 10
0.0
 20
0.0
  9
$LIMMAX
 10
12.0
 20
9.0
  9
$ORTHOMODE
 70
     0
  9
$REGENMODE
 70
     1
  9
$FILLMODE
 70
     1
  9
$QTEXTMODE
 70
     0
  9
$MIRRTEXT
 70
     1
  9
$DRAGMODE
 70
     2
  9
$LTSCALE
 40
1.0
  9
$OSMODE
 70
    37
  9
$ATTMODE
 70
     1
  9
$TEXTSIZE
 40
0.2
  9
$TRACEWID
 40
0.05
  9
$TEXTSTYLE
  7
STANDARD
  9
$CLAYER
  8
0
  9
$CELTYPE
  6
BYLAYER
  9
$CECOLOR
 62
   256
  9
$CELTSCALE
 40
1.0
  9
$DELOBJ
 70
     1
  9
$DISPSILH
 70
     0
  9
$DIMSCALE
 40
1.0
  9
$DIMASZ
 40
0.18
  9
$DIMEXO
 40
0.0625
  9
$DIMDLI
 40
0.38
  9
$DIMRND
 40
0.0
  9
$DIMDLE
 40
0.0
  9
$DIMEXE
 40
0.18
  9
$DIMTP
 40
0.0
  9
$DIMTM
 40
0.0
  9
$DIMTXT
 40
0.18
  9
$DIMCEN
 40
0.09
  9
$DIMTSZ
 40
0.0
  9
$DIMTOL
 70
     0
  9
$DIMLIM
 70
     0
  9
$DIMTIH
 70
     1
  9
$DIMTOH
 70
     1
  9
$DIMSE1
 70
     0
  9
$DIMSE2
 70
     0
  9
$DIMTAD
 70
     0
  9
$DIMZIN
 70
     0
  9
$DIMBLK
  1

  9
$DIMASO
 70
     1
  9
$DIMSHO
 70
     1
  9
$DIMPOST
  1

  9
$DIMAPOST
  1

  9
$DIMALT
 70
     0
  9
$DIMALTD
 70
     2
  9
$DIMALTF
 40
25.4
  9
$DIMLFAC
 40
1.0
  9
$DIMTOFL
 70
     0
  9
$DIMTVP
 40
0.0
  9
$DIMTIX
 70
     0
  9
$DIMSOXD
 70
     0
  9
$DIMSAH
 70
     0
  9
$DIMBLK1
  1

  9
$DIMBLK2
  1

  9
$DIMSTYLE
  2
STANDARD
  9
$DIMCLRD
 70
     0
  9
$DIMCLRE
 70
     0
  9
$DIMCLRT
 70
     0
  9
$DIMTFAC
 40
1.0
  9
$DIMGAP
 40
0.09
  9
$DIMJUST
 70
     0
  9
$DIMSD1
 70
     0
  9
$DIMSD2
 70
     0
  9
$DIMTOLJ
 70
     1
  9
$DIMTZIN
 70
     0
  9
$DIMALTZ
 70
     0
  9
$DIMALTTZ
 70
     0
  9
$DIMFIT
 70
     3
  9
$DIMUPT
 70
     0
  9
$DIMUNIT
 70
     2
  9
$DIMDEC
 70
     4
  9
$DIMTDEC
 70
     4
  9
$DIMALTU
 70
     2
  9
$DIMALTTD
 70
     2
  9
$DIMTXSTY
  7
STANDARD
  9
$DIMAUNIT
 70
     0
  9
$LUNITS
 70
     2
  9
$LUPREC
 70
     4
  9
$SKETCHINC
 40
0.1
  9
$FILLETRAD
 40
0.5
  9
$AUNITS
 70
     0
  9
$AUPREC
 70
     0
  9
$MENU
  1
.
  9
$ELEVATION
 40
0.0
  9
$PELEVATION
 40
0.0
  9
$THICKNESS
 40
0.0
  9
$LIMCHECK
 70
     0
  9
$CHAMFERA
 40
0.0
  9
$CHAMFERB
 40
0.0
  9
$CHAMFERC
 40
0.0
  9
$CHAMFERD
 40
0.0
  9
$SKPOLY
 70
     0
  9
$TDCREATE
 40
2458191.865602084
  9
$TDUPDATE
 40
2458191.865602581
  9
$TDINDWG
 40
0.0000000116
  9
$TDUSRTIMER
 40
0.0000000116
  9
$USRTIMER
 70
     1
  9
$ANGBASE
 50
0.0
  9
$ANGDIR
 70
     0
  9
$PDMODE
 70
     0
  9
$PDSIZE
 40
0.0
  9
$PLINEWID
 40
0.0
  9
$COORDS
 70
     1
  9
$SPLFRAME
 70
     0
  9
$SPLINETYPE
 70
     6
  9
$SPLINESEGS
 70
     8
  9
$ATTDIA
 70
     0
  9
$ATTREQ
 70
     1
  9
$HANDLING
 70
     1
  9
$HANDSEED
  5
184
  9
$SURFTAB1
 70
     6
  9
$SURFTAB2
 70
     6
  9
$SURFTYPE
 70
     6
  9
$SURFU
 70
     6
  9
$SURFV
 70
     6
  9
$UCSNAME
  2

  9
$UCSORG
 10
0.0
 20
0.0
 30
0.0
  9
$UCSXDIR
 10
1.0
 20
0.0
 30
0.0
  9
$UCSYDIR
 10
0.0
 20
1.0
 30
0.0
  9
$PUCSNAME
  2

  9
$PUCSORG
 10
0.0
 20
0.0
 30
0.0
  9
$PUCSXDIR
 10
1.0
 20
0.0
 30
0.0
  9
$PUCSYDIR
 10
0.0
 20
1.0
 30
0.0
  9
$USERI1
 70
     0
  9
$USERI2
 70
     0
  9
$USERI3
 70
     0
  9
$USERI4
 70
     0
  9
$USERI5
 70
     0
  9
$USERR1
 40
0.0
  9
$USERR2
 40
0.0
  9
$USERR3
 40
0.0
  9
$USERR4
 40
0.0
  9
$USERR5
 40
0.0
  9
$WORLDVIEW
 70
     1
  9
$SHADEDGE
 70
     3
  9
$SHADEDIF
 70
    70
  9
$TILEMODE
 70
     1
  9
$MAXACTVP
 70
    64
  9
$PINSBASE
 10
0.0
 20
0.0
 30
0.0
  9
$PLIMCHECK
 70
     0
  9
$PEXTMIN
 10
1.000000000000000E+20
 20
1.000000000000000E+20
 30
1.000000000000000E+20
  9
$PEXTMAX
 10
-1.000000000000000E+20
 20
-1.000000000000000E+20
 30
-1.000000000000000E+20
  9
$PLIMMIN
 10
0.0
 20
0.0
  9
$PLIMMAX
 10
12.0
 20
9.0
  9
$UNITMODE
 70
     0
  9
$VISRETAIN
 70
     1
  9
$PLINEGEN
 70
     0
  9
$PSLTSCALE
 70
     1
  9
$TREEDEPTH
 70
  3020
  9
$PICKSTYLE
 70
     1
  9
$CMLSTYLE
  2
STANDARD
  9
$CMLJUST
 70
     0
  9
$CMLSCALE
 40
1.0
  9
$PROXYGRAPHICS
 70
     1
  9
$MEASUREMENT
 70
     1
  0
ENDSEC
  0
SECTION
  2
CLASSES
  0
CLASS
  1
ACDBDICTIONARYWDFLT
  2
AcDbDictionaryWithDefault
  3
ObjectDBX Classes
 90
        0
280
     0
281
     0
  0
CLASS
  1
VISUALSTYLE
  2
AcDbVisualStyle
  3
ObjectDBX Classes
 90
     4095
280
     0
281
     0
  0
CLASS
  1
MATERIAL
  2
AcDbMaterial
  3
ObjectDBX Classes
 90
     1153
280
     0
281
     0
  0
CLASS
  1
SCALE
  2
AcDbScale
  3
ObjectDBX Classes
 90
     1153
280
     0
281
     0
  0
CLASS
  1
TABLESTYLE
  2
AcDbTableStyle
  3
ObjectDBX Classes
 90
     4095
280
     0
281
     0
  0
CLASS
  1
MLEADERSTYLE
  2
AcDbMLeaderStyle
  3
ACDB_MLEADERSTYLE_CLASS
 90
     4095
280
     0
281
     0
  0
CLASS
  1
SUN
  2
AcDbSun
  3
SCENEOE
 90
     1153
280
     0
281
     0
  0
CLASS
  1
DICTIONARYVAR
  2
AcDbDictionaryVar
  3
ObjectDBX Classes
 90
        0
280
     0
281
     0
  0
CLASS
  1
XRECORD
  2
AcDbXrecord
  3
ObjectDBX Classes
 90
        0
280
     0
281
     0
  0
CLASS
  1
LWPOLYLINE
  2
AcDbPolyline
  3
ObjectDBX Classes
 90
        0
280
     0
281
     1
  0
CLASS
  1
HATCH
  2
AcDbHatch
  3
ObjectDBX Classes
 90
        0
280
     0
281
     1
  0
CLASS
  1
ACDBPLACEHOLDER
  2
AcDbPlaceHolder
  3
ObjectDBX Classes
 90
        0
280
     0
281
     0
  0
CLASS
  1
LAYOUT
  2
AcDbLayout
  3
ObjectDBX Classes
 90
        0
280
     0
281
     0
  0
ENDSEC
  0
SECTION
  2
TABLES
  0
TABLE
  2
VPORT
  5
8
102
{ACAD_XDICTIONARY
360
179
102
}
330
0
100
AcDbSymbolTable
 70
     1
  0
VPORT
  5
29
330
8
100
AcDbSymbolTableRecord
100
AcDbViewportTableRecord
  2
*ACTIVE
 70
     0
 10
0.0
 20
0.0
 11
1.0
 21
1.0
 12
0.0
 22
0.0
 13
0.0
 23
0.0
 14
0.5
 24
0.5
 15
0.5
 25
0.5
 16
0.0
 26
0.0
 36
1.0
 17
0.0
 27
0.0
 37
-1000.0
 40
1304.828577039117
 41
1.95230998509687
 42
50.0
 43
979.6443898105117
 44
2503.483143101736
 50
0.0
 51
0.0
 71
     0
 72
   100
 73
     1
 74
     3
 75
     0
 76
     0
 77
     0
 78
     0
  0
ENDTAB
  0
TABLE
  2
LTYPE
  5
5
330
0
100
AcDbSymbolTable
 70
     1
  0
LTYPE
  5
14
330
5
100
AcDbSymbolTableRecord
100
AcDbLinetypeTableRecord
  2
BYBLOCK
 70
     0
  3

 72
    65
 73
     0
 40
0.0
  0
LTYPE
  5
15
330
5
100
AcDbSymbolTableRecord
100
AcDbLinetypeTableRecord
  2
BYLAYER
 70
     0
  3

 72
    65
 73
     0
 40
0.0
  0
LTYPE
  5
16
330
5
100
AcDbSymbolTableRecord
100
AcDbLinetypeTableRecord
  2
CONTINUOUS
 70
     0
  3
Solid line
 72
    65
 73
     0
 40
0.0
  0
ENDTAB
  0
TABLE
  2
LAYER
  5
2
330
0
100
AcDbSymbolTable
 70
     3
  0
LAYER
  5
10
330
2
100
AcDbSymbolTableRecord
100
AcDbLayerTableRecord
  2
0
 70
     0
 62
     7
  6
CONTINUOUS
  0
LAYER
  5
6E
330
2
100
AcDbSymbolTableRecord
100
AcDbLayerTableRecord
  2
PROFILEEDGES
 70
     0
 62
     7
  6
CONTINUOUS
  0
LAYER
  5
6F
330
2
100
AcDbSymbolTableRecord
100
AcDbLayerTableRecord
  2
SECTIONCUTEDGES
 70
     0
 62
     7
  6
CONTINUOUS
  0
ENDTAB
  0
TABLE
  2
STYLE
  5
3
330
0
100
AcDbSymbolTable
 70
     1
  0
STYLE
  5
11
330
3
100
AcDbSymbolTableRecord
100
AcDbTextStyleTableRecord
  2
STANDARD
 70
     0
 40
0.0
 41
1.0
 50
0.0
 71
     0
 42
0.2
  3
txt
  4

  0
ENDTAB
  0
TABLE
  2
VIEW
  5
6
330
0
100
AcDbSymbolTable
 70
     0
  0
ENDTAB
  0
TABLE
  2
UCS
  5
7
330
0
100
AcDbSymbolTable
 70
     0
  0
ENDTAB
  0
TABLE
  2
APPID
  5
9
330
0
100
AcDbSymbolTable
 70
     2
  0
APPID
  5
12
330
9
100
AcDbSymbolTableRecord
100
AcDbRegAppTableRecord
  2
ACAD
 70
     0
  0
APPID
  5
183
330
9
100
AcDbSymbolTableRecord
100
AcDbRegAppTableRecord
  2
ACAD_MLEADERVER
 70
     0
  0
ENDTAB
  0
TABLE
  2
DIMSTYLE
  5
A
330
0
100
AcDbSymbolTable
 70
     1
  0
DIMSTYLE
105
27
330
A
100
AcDbSymbolTableRecord
100
AcDbDimStyleTableRecord
  2
STANDARD
 70
     0
  3

  4

  5

  6

  7

 40
1.0
 41
0.18
 42
0.0625
 43
0.38
 44
0.18
 45
0.0
 46
0.0
 47
0.0
 48
0.0
140
0.18
141
0.09
142
0.0
143
25.4
144
1.0
145
0.0
146
1.0
147
0.09
 71
     0
 72
     0
 73
     1
 74
     1
 75
     0
 76
     0
 77
     0
 78
     0
170
     0
171
     2
172
     0
173
     0
174
     0
175
     0
176
     0
177
     0
178
     0
270
     2
271
     4
272
     4
273
     2
274
     2
340
11
275
     0
280
     0
281
     0
282
     0
283
     1
284
     0
285
     0
286
     0
287
     3
288
     0
  0
ENDTAB
  0
TABLE
  2
BLOCK_RECORD
  5
1
330
0
100
AcDbSymbolTable
 70
     1
  0
BLOCK_RECORD
  5
1F
330
1
100
AcDbSymbolTableRecord
100
AcDbBlockTableRecord
  2
*MODEL_SPACE
  0
BLOCK_RECORD
  5
1B
330
1
100
AcDbSymbolTableRecord
100
AcDbBlockTableRecord
  2
*PAPER_SPACE
  0
ENDTAB
  0
ENDSEC
  0
SECTION
  2
BLOCKS
  0
BLOCK
  5
20
330
1F
100
AcDbEntity
  8
0
100
AcDbBlockBegin
  2
*MODEL_SPACE
 70
     0
 10
0.0
 20
0.0
 30
0.0
  3
*MODEL_SPACE
  1

  0
ENDBLK
  5
21
330
1F
100
AcDbEntity
  8
0
100
AcDbBlockEnd
  0
BLOCK
  5
1C
330
1B
100
AcDbEntity
 67
     1
  8
0
100
AcDbBlockBegin
  2
*PAPER_SPACE
 70
     0
 10
0.0
 20
0.0
 30
0.0
  3
*PAPER_SPACE
  1

  0
ENDBLK
  5
1D
330
1B
100
AcDbEntity
 67
     1
  8
0
100
AcDbBlockEnd
  0
ENDSEC
  0
SECTION
  2
ENTITIES
  0
LINE
  5
70
330
1F
100
AcDbEntity
  8
0
100
AcDbLine
 10
98.24740857197726
 20
71.8317556738963
 30
0.0
 11
100.9745158561409
 21
68.2362070930249
 31
0.0
  0
LINE
  5
71
330
1F
100
AcDbEntity
  8
0
100
AcDbLine
 10
93.24740857197723
 20
-218.5760053596522
 30
0.0
 11
113.2474085719772
 21
-218.5760053596522
 31
0.0
  0
LINE
  5
72
330
1F
100
AcDbEntity
  8
0
100
AcDbLine
 10
470.5457763561578
 20
-162.4437541229587
 30
0.0
 11
464.6454573459859
 21
-173.7877145278862
 31
0.0
  0
LINE
  5
73
330
1F
100
AcDbEntity
  8
0
100
AcDbLine
 10
493.2474085719772
 20
-63.57600535965219
 30
0.0
 11
492.886706131785
 21
-76.35759742950019
 31
0.0
  0
LINE
  5
74
330
1F
100
AcDbEntity
  8
0
100
AcDbLine
 10
470.5457763561578
 20
35.29174340365417
 30
0.0
 11
475.7969507589474
 21
23.63308269661541
 31
0.0
  0
LINE
  5
75
330
1F
100
AcDbEntity
  8
0
100
AcDbLine
 10
140.0079717441009
 20
-25.393837082065
 30
0.0
 11
141.8057469426091
 21
-38.05350557796133
 31
0.0
  0
LINE
  5
76
330
1F
100
AcDbEntity
  8
0
100
AcDbLine
 10
143.2474085719772
 20
-63.57600535965217
 30
0.0
 11
142.886706131785
 21
-76.35759742950016
 31
0.0
  0
LINE
  5
77
330
1F
100
AcDbEntity
  8
0
100
AcDbLine
 10
137.4991029321396
 20
-12.85570407213372
 30
0.0
 11
140.0079717441009
 21
-25.393837082065
 31
0.0
  0
LINE
  5
78
330
1F
100
AcDbEntity
  8
0
100
AcDbLine
 10
120.5457763561579
 20
-162.4437541229586
 30
0.0
 11
114.6454573459859
 21
-173.7877145278862
 31
0.0
  0
LINE
  5
79
330
1F
100
AcDbEntity
  8
0
100
AcDbLine
 10
114.6454573459859
 20
-173.7877145278862
 30
0.0
 11
108.1147746979413
 21
-184.7808663161994
 31
0.0
  0
LINE
  5
7A
330
1F
100
AcDbEntity
  8
0
100
AcDbLine
 10
100.9745158561409
 20
-195.3882178123294
 30
0.0
 11
98.24740857197722
 21
-198.9837663932008
 31
0.0
  0
LINE
  5
7B
330
1F
100
AcDbEntity
  8
0
100
AcDbLine
 10
142.8867061317849
 20
-50.79441328980422
 30
0.0
 11
143.2474085719772
 21
-63.57600535965217
 31
0.0
  0
LINE
  5
7C
330
1F
100
AcDbEntity
  8
0
100
AcDbLine
 10
108.1147746979413
 20
-184.7808663161994
 30
0.0
 11
100.9745158561409
 21
-195.3882178123294
 31
0.0
  0
LINE
  5
7D
330
1F
100
AcDbEntity
  8
0
100
AcDbLine
 10
141.8057469426091
 20
-89.09850514134301
 30
0.0
 11
140.0079717441009
 21
-101.7581736372394
 31
0.0
  0
LINE
  5
7E
330
1F
100
AcDbEntity
  8
0
100
AcDbLine
 10
142.886706131785
 20
-76.35759742950016
 30
0.0
 11
141.8057469426091
 21
-89.09850514134301
 31
0.0
  0
LINE
  5
7F
330
1F
100
AcDbEntity
  8
0
100
AcDbLine
 10
134.2871263441994
 20
-0.479015965500095
 30
0.0
 11
137.4991029321396
 21
-12.85570407213372
 31
0.0
  0
LINE
  5
80
330
1F
100
AcDbEntity
  8
0
100
AcDbLine
 10
130.3822658400854
 20
11.69683170658304
 30
0.0
 11
134.2871263441994
 21
-0.479015965500095
 31
0.0
  0
LINE
  5
81
330
1F
100
AcDbEntity
  8
0
100
AcDbLine
 10
120.5457763561579
 20
35.29174340365422
 30
0.0
 11
125.7969507589474
 21
23.63308269661545
 31
0.0
  0
LINE
  5
82
330
1F
100
AcDbEntity
  8
0
100
AcDbLine
 10
125.7969507589474
 20
23.63308269661545
 30
0.0
 11
130.3822658400854
 21
11.69683170658304
 31
0.0
  0
LINE
  5
83
330
1F
100
AcDbEntity
  8
0
100
AcDbLine
 10
100.9745158561409
 20
68.2362070930249
 30
0.0
 11
108.1147746979414
 21
57.62885559689492
 31
0.0
  0
LINE
  5
84
330
1F
100
AcDbEntity
  8
0
100
AcDbLine
 10
114.6454573459858
 20
46.63570380858177
 30
0.0
 11
120.5457763561579
 21
35.29174340365422
 31
0.0
  0
LINE
  5
85
330
1F
100
AcDbEntity
  8
0
100
AcDbLine
 10
141.8057469426091
 20
-38.05350557796133
 30
0.0
 11
142.8867061317849
 21
-50.79441328980422
 31
0.0
  0
LINE
  5
86
330
1F
100
AcDbEntity
  8
0
100
AcDbLine
 10
137.4991029321395
 20
-114.2963066471707
 30
0.0
 11
134.2871263441993
 21
-126.6729947538043
 31
0.0
  0
LINE
  5
87
330
1F
100
AcDbEntity
  8
0
100
AcDbLine
 10
134.2871263441993
 20
-126.6729947538043
 30
0.0
 11
130.3822658400854
 21
-138.8488424258874
 31
0.0
  0
LINE
  5
88
330
1F
100
AcDbEntity
  8
0
100
AcDbLine
 10
130.3822658400854
 20
-138.8488424258874
 30
0.0
 11
125.7969507589474
 21
-150.7850934159198
 31
0.0
  0
LINE
  5
89
330
1F
100
AcDbEntity
  8
0
100
AcDbLine
 10
140.0079717441009
 20
-101.7581736372394
 30
0.0
 11
137.4991029321395
 21
-114.2963066471707
 31
0.0
  0
LINE
  5
8A
330
1F
100
AcDbEntity
  8
0
100
AcDbLine
 10
108.1147746979414
 20
57.62885559689492
 30
0.0
 11
114.6454573459858
 21
46.63570380858177
 31
0.0
  0
LINE
  5
8B
330
1F
100
AcDbEntity
  8
0
100
AcDbLine
 10
125.7969507589474
 20
-150.7850934159198
 30
0.0
 11
120.5457763561579
 21
-162.4437541229586
 31
0.0
  0
LINE
  5
8C
330
1F
100
AcDbEntity
  8
0
100
AcDbLine
 10
256.6074085719772
 20
-70.07600535965224
 30
0.0
 11
256.6074085719772
 21
-57.07600535965225
 31
0.0
  0
LINE
  5
8D
330
1F
100
AcDbEntity
  8
0
100
AcDbLine
 10
93.24740857197723
 20
-238.5760053596522
 30
0.0
 11
443.2474085719772
 21
-238.5760053596523
 31
0.0
  0
LINE
  5
8E
330
1F
100
AcDbEntity
  8
0
100
AcDbLine
 10
93.24740857197726
 20
111.4239946403478
 30
0.0
 11
93.24740857197726
 21
91.42399464034776
 31
0.0
  0
LINE
  5
8F
330
1F
100
AcDbEntity
  8
0
100
AcDbLine
 10
113.2474085719772
 20
-205.5760053596522
 30
0.0
 11
113.2474085719772
 21
-218.5760053596522
 31
0.0
  0
LINE
  5
90
330
1F
100
AcDbEntity
  8
0
100
AcDbLine
 10
113.2474085719773
 20
91.42399464034776
 30
0.0
 11
113.2474085719773
 21
78.42399464034776
 31
0.0
  0
LINE
  5
91
330
1F
100
AcDbEntity
  8
0
100
AcDbLine
 10
443.2474085719772
 20
78.42399464034773
 30
0.0
 11
423.2474085719773
 21
78.42399464034771
 31
0.0
  0
LINE
  5
92
330
1F
100
AcDbEntity
  8
0
100
AcDbLine
 10
93.24740857197723
 20
-218.5760053596522
 30
0.0
 11
93.24740857197723
 21
-238.5760053596522
 31
0.0
  0
LINE
  5
93
330
1F
100
AcDbEntity
  8
0
100
AcDbLine
 10
443.2474085719772
 20
91.42399464034771
 30
0.0
 11
443.2474085719772
 21
111.4239946403477
 31
0.0
  0
LINE
  5
94
330
1F
100
AcDbEntity
  8
0
100
AcDbLine
 10
492.8867061317849
 20
-50.79441328980424
 30
0.0
 11
493.2474085719772
 21
-63.57600535965219
 31
0.0
  0
LINE
  5
95
330
1F
100
AcDbEntity
  8
0
100
AcDbLine
 10
491.8057469426091
 20
-89.09850514134305
 30
0.0
 11
490.0079717441009
 21
-101.7581736372394
 31
0.0
  0
LINE
  5
96
330
1F
100
AcDbEntity
  8
0
100
AcDbLine
 10
492.886706131785
 20
-76.35759742950019
 30
0.0
 11
491.8057469426091
 21
-89.09850514134305
 31
0.0
  0
LINE
  5
97
330
1F
100
AcDbEntity
  8
0
100
AcDbLine
 10
490.0079717441009
 20
-25.39383708206502
 30
0.0
 11
491.8057469426091
 21
-38.05350557796137
 31
0.0
  0
LINE
  5
98
330
1F
100
AcDbEntity
  8
0
100
AcDbLine
 10
450.9745158561409
 20
-195.3882178123294
 30
0.0
 11
443.2474085719772
 21
-205.5760053596523
 31
0.0
  0
LINE
  5
99
330
1F
100
AcDbEntity
  8
0
100
AcDbLine
 10
484.2871263441994
 20
-0.4790159655001401
 30
0.0
 11
487.4991029321395
 21
-12.85570407213377
 31
0.0
  0
LINE
  5
9A
330
1F
100
AcDbEntity
  8
0
100
AcDbLine
 10
464.6454573459859
 20
-173.7877145278862
 30
0.0
 11
458.1147746979414
 21
-184.7808663161994
 31
0.0
  0
LINE
  5
9B
330
1F
100
AcDbEntity
  8
0
100
AcDbLine
 10
443.2474085719772
 20
78.42399464034773
 30
0.0
 11
450.9745158561409
 21
68.23620709302487
 31
0.0
  0
LINE
  5
9C
330
1F
100
AcDbEntity
  8
0
100
AcDbLine
 10
458.1147746979414
 20
-184.7808663161994
 30
0.0
 11
450.9745158561409
 21
-195.3882178123294
 31
0.0
  0
LINE
  5
9D
330
1F
100
AcDbEntity
  8
0
100
AcDbLine
 10
487.4991029321395
 20
-12.85570407213377
 30
0.0
 11
490.0079717441009
 21
-25.39383708206502
 31
0.0
  0
LINE
  5
9E
330
1F
100
AcDbEntity
  8
0
100
AcDbLine
 10
480.3822658400853
 20
11.69683170658299
 30
0.0
 11
484.2871263441994
 21
-0.4790159655001401
 31
0.0
  0
LINE
  5
9F
330
1F
100
AcDbEntity
  8
0
100
AcDbLine
 10
475.7969507589474
 20
23.63308269661541
 30
0.0
 11
480.3822658400853
 21
11.69683170658299
 31
0.0
  0
LINE
  5
A0
330
1F
100
AcDbEntity
  8
0
100
AcDbLine
 10
450.9745158561409
 20
68.23620709302487
 30
0.0
 11
458.1147746979414
 21
57.62885559689488
 31
0.0
  0
LINE
  5
A1
330
1F
100
AcDbEntity
  8
0
100
AcDbLine
 10
464.6454573459859
 20
46.63570380858172
 30
0.0
 11
470.5457763561578
 21
35.29174340365417
 31
0.0
  0
LINE
  5
A2
330
1F
100
AcDbEntity
  8
0
100
AcDbLine
 10
491.8057469426091
 20
-38.05350557796137
 30
0.0
 11
492.8867061317849
 21
-50.79441328980424
 31
0.0
  0
LINE
  5
A3
330
1F
100
AcDbEntity
  8
0
100
AcDbLine
 10
487.4991029321395
 20
-114.2963066471707
 30
0.0
 11
484.2871263441992
 21
-126.6729947538043
 31
0.0
  0
LINE
  5
A4
330
1F
100
AcDbEntity
  8
0
100
AcDbLine
 10
484.2871263441992
 20
-126.6729947538043
 30
0.0
 11
480.3822658400853
 21
-138.8488424258875
 31
0.0
  0
LINE
  5
A5
330
1F
100
AcDbEntity
  8
0
100
AcDbLine
 10
480.3822658400853
 20
-138.8488424258875
 30
0.0
 11
475.7969507589473
 21
-150.7850934159199
 31
0.0
  0
LINE
  5
A6
330
1F
100
AcDbEntity
  8
0
100
AcDbLine
 10
490.0079717441009
 20
-101.7581736372394
 30
0.0
 11
487.4991029321395
 21
-114.2963066471707
 31
0.0
  0
LINE
  5
A7
330
1F
100
AcDbEntity
  8
0
100
AcDbLine
 10
458.1147746979414
 20
57.62885559689488
 30
0.0
 11
464.6454573459859
 21
46.63570380858172
 31
0.0
  0
LINE
  5
A8
330
1F
100
AcDbEntity
  8
0
100
AcDbLine
 10
475.7969507589473
 20
-150.7850934159199
 30
0.0
 11
470.5457763561578
 21
-162.4437541229587
 31
0.0
  0
LINE
  5
A9
330
1F
100
AcDbEntity
  8
0
100
AcDbLine
 10
98.24740857197722
 20
-205.5760053596522
 30
0.0
 11
113.2474085719772
 21
-205.5760053596522
 31
0.0
  0
LINE
  5
AA
330
1F
100
AcDbEntity
  8
0
100
AcDbLine
 10
98.24740857197726
 20
71.8317556738963
 30
0.0
 11
98.24740857197726
 21
78.42399464034777
 31
0.0
  0
LINE
  5
AB
330
1F
100
AcDbEntity
  8
0
100
AcDbLine
 10
443.2474085719772
 20
-238.5760053596523
 30
0.0
 11
443.2474085719772
 21
-218.5760053596523
 31
0.0
  0
LINE
  5
AC
330
1F
100
AcDbEntity
  8
0
100
AcDbLine
 10
423.2474085719773
 20
-218.5760053596523
 30
0.0
 11
443.2474085719772
 21
-218.5760053596523
 31
0.0
  0
LINE
  5
AD
330
1F
100
AcDbEntity
  8
0
100
AcDbLine
 10
423.2474085719773
 20
-218.5760053596523
 30
0.0
 11
423.2474085719773
 21
-205.5760053596523
 31
0.0
  0
LINE
  5
AE
330
1F
100
AcDbEntity
  8
0
100
AcDbLine
 10
423.2474085719773
 20
-205.5760053596523
 30
0.0
 11
443.2474085719772
 21
-205.5760053596523
 31
0.0
  0
LINE
  5
AF
330
1F
100
AcDbEntity
  8
0
100
AcDbLine
 10
423.2474085719773
 20
78.42399464034771
 30
0.0
 11
423.2474085719773
 21
91.42399464034771
 31
0.0
  0
LINE
  5
B0
330
1F
100
AcDbEntity
  8
0
100
AcDbLine
 10
443.2474085719772
 20
91.42399464034771
 30
0.0
 11
423.2474085719773
 21
91.42399464034771
 31
0.0
  0
LINE
  5
B1
330
1F
100
AcDbEntity
  8
0
100
AcDbLine
 10
443.2474085719772
 20
111.4239946403477
 30
0.0
 11
93.24740857197726
 21
111.4239946403478
 31
0.0
  0
LINE
  5
B2
330
1F
100
AcDbEntity
  8
0
100
AcDbLine
 10
113.2474085719773
 20
91.42399464034776
 30
0.0
 11
93.24740857197726
 21
91.42399464034776
 31
0.0
  0
LINE
  5
B3
330
1F
100
AcDbEntity
  8
0
100
AcDbLine
 10
113.2474085719773
 20
78.42399464034776
 30
0.0
 11
98.24740857197726
 21
78.42399464034777
 31
0.0
  0
LINE
  5
B4
330
1F
100
AcDbEntity
  8
0
100
AcDbLine
 10
98.24740857197722
 20
-205.5760053596522
 30
0.0
 11
98.24740857197722
 21
-198.9837663932008
 31
0.0
  0
LINE
  5
B5
330
1F
100
AcDbEntity
  8
0
100
AcDbLine
 10
276.6074085719773
 20
-57.07600535965225
 30
0.0
 11
316.6074085719773
 21
-57.07600535965225
 31
0.0
  0
LINE
  5
B6
330
1F
100
AcDbEntity
  8
0
100
AcDbLine
 10
316.6074085719773
 20
-57.07600535965225
 30
0.0
 11
316.6074085719773
 21
-70.07600535965224
 31
0.0
  0
LINE
  5
B7
330
1F
100
AcDbEntity
  8
0
100
AcDbLine
 10
316.6074085719773
 20
-70.07600535965224
 30
0.0
 11
276.6074085719773
 21
-70.07600535965224
 31
0.0
  0
LINE
  5
B8
330
1F
100
AcDbEntity
  8
0
100
AcDbLine
 10
276.6074085719773
 20
-57.07600535965225
 30
0.0
 11
276.6074085719773
 21
-70.07600535965224
 31
0.0
  0
LINE
  5
B9
330
1F
100
AcDbEntity
  8
0
100
AcDbLine
 10
256.6074085719772
 20
-70.07600535965224
 30
0.0
 11
216.6074085719773
 21
-70.07600535965224
 31
0.0
  0
LINE
  5
BA
330
1F
100
AcDbEntity
  8
0
100
AcDbLine
 10
216.6074085719773
 20
-70.07600535965224
 30
0.0
 11
216.6074085719773
 21
-57.07600535965225
 31
0.0
  0
LINE
  5
BB
330
1F
100
AcDbEntity
  8
0
100
AcDbLine
 10
216.6074085719773
 20
-57.07600535965225
 30
0.0
 11
256.6074085719772
 21
-57.07600535965225
 31
0.0
  0
LINE
  5
BC
330
1F
100
AcDbEntity
  8
0
100
AcDbLine
 10
528.1458880737107
 20
45.09834681545396
 30
0.0
 11
528.561492904375
 21
45.13894601795722
 31
0.0
  0
LINE
  5
BD
330
1F
100
AcDbEntity
  8
0
100
AcDbLine
 10
521.6461226553953
 20
-3.767242358111526
 30
0.0
 11
521.4587203824049
 21
-3.426966215703859
 31
0.0
  0
LINE
  5
BE
330
1F
100
AcDbEntity
  8
0
100
AcDbLine
 10
525.7062222760704
 20
42.57006050287128
 30
0.0
 11
521.2344609784188
 21
-2.292726522070326
 31
0.0
  0
LINE
  5
BF
330
1F
100
AcDbEntity
  8
0
100
AcDbLine
 10
521.883534689536
 20
-4.074720798102057
 30
0.0
 11
521.6461226553953
 21
-3.767242358111526
 31
0.0
  0
LINE
  5
C0
330
1F
100
AcDbEntity
  8
0
100
AcDbLine
 10
521.4587203824049
 20
-3.426966215703859
 30
0.0
 11
521.3257695013565
 21
-3.061957273015737
 31
0.0
  0
LINE
  5
C1
330
1F
100
AcDbEntity
  8
0
100
AcDbLine
 10
521.3257695013565
 20
-3.061957273015737
 30
0.0
 11
521.2504210878357
 21
-2.680866625539704
 31
0.0
  0
LINE
  5
C2
330
1F
100
AcDbEntity
  8
0
100
AcDbLine
 10
521.2504210878357
 20
-2.680866625539704
 30
0.0
 11
521.2344609784188
 21
-2.292726522070326
 31
0.0
  0
LINE
  5
C3
330
1F
100
AcDbEntity
  8
0
100
AcDbLine
 10
525.7062222760704
 20
42.57006050287128
 30
0.0
 11
525.790360043896
 21
42.97907945908315
 31
0.0
  0
LINE
  5
C4
330
1F
100
AcDbEntity
  8
0
100
AcDbLine
 10
526.1259725756589
 20
43.74157371185915
 30
0.0
 11
526.3707699027294
 21
44.07987821844231
 31
0.0
  0
LINE
  5
C5
330
1F
100
AcDbEntity
  8
0
100
AcDbLine
 10
525.790360043896
 20
42.97907945908315
 30
0.0
 11
525.931210946191
 21
43.37219101301923
 31
0.0
  0
LINE
  5
C6
330
1F
100
AcDbEntity
  8
0
100
AcDbLine
 10
525.931210946191
 20
43.37219101301923
 30
0.0
 11
526.1259725756589
 21
43.74157371185915
 31
0.0
  0
LINE
  5
C7
330
1F
100
AcDbEntity
  8
0
100
AcDbLine
 10
535.3587836247871
 20
-3.731980622919235
 30
0.0
 11
535.0999928189055
 21
-4.026734885968533
 31
0.0
  0
LINE
  5
C8
330
1F
100
AcDbEntity
  8
0
100
AcDbLine
 10
535.0999928189055
 20
-4.026734885968533
 30
0.0
 11
534.8049159896582
 21
-4.285157837031014
 31
0.0
  0
LINE
  5
C9
330
1F
100
AcDbEntity
  8
0
100
AcDbLine
 10
535.5768533998787
 20
-3.405946376273207
 30
0.0
 11
535.3587836247871
 21
-3.731980622919235
 31
0.0
  0
LINE
  5
CA
330
1F
100
AcDbEntity
  8
0
100
AcDbLine
 10
526.3707699027294
 20
44.07987821844231
 30
0.0
 11
526.6607323741839
 21
44.3803735356493
 31
0.0
  0
LINE
  5
CB
330
1F
100
AcDbEntity
  8
0
100
AcDbLine
 10
526.6607323741839
 20
44.3803735356493
 30
0.0
 11
526.9900908189883
 21
44.63708092812443
 31
0.0
  0
LINE
  5
CC
330
1F
100
AcDbEntity
  8
0
100
AcDbLine
 10
526.9900908189883
 20
44.63708092812443
 30
0.0
 11
527.3522922332655
 21
44.84489287679641
 31
0.0
  0
LINE
  5
CD
330
1F
100
AcDbEntity
  8
0
100
AcDbLine
 10
527.7401301606172
 20
44.99967469944651
 30
0.0
 11
528.1458880737107
 21
45.09834681545396
 31
0.0
  0
LINE
  5
CE
330
1F
100
AcDbEntity
  8
0
100
AcDbLine
 10
527.3522922332655
 20
44.84489287679641
 30
0.0
 11
527.7401301606172
 21
44.99967469944651
 31
0.0
  0
LINE
  5
CF
330
1F
100
AcDbEntity
  8
0
100
AcDbLine
 10
523.5904502687996
 20
-4.901303817248005
 30
0.0
 11
523.9788933964633
 21
-4.896899094245462
 31
0.0
  0
LINE
  5
D0
330
1F
100
AcDbEntity
  8
0
100
AcDbLine
 10
523.9788933964633
 20
-4.896899094245462
 30
0.0
 11
533.3703308486969
 21
-4.877810766589437
 31
0.0
  0
LINE
  5
D1
330
1F
100
AcDbEntity
  8
0
100
AcDbLine
 10
535.8694760678658
 20
43.31052883611029
 30
0.0
 11
535.710414810984
 21
43.68776895857501
 31
0.0
  0
LINE
  5
D2
330
1F
100
AcDbEntity
  8
0
100
AcDbLine
 10
535.2288995931784
 20
44.34700334454787
 30
0.0
 11
534.9179239684545
 21
44.61328281102164
 31
0.0
  0
LINE
  5
D3
330
1F
100
AcDbEntity
  8
0
100
AcDbLine
 10
534.9179239684545
 20
44.61328281102164
 30
0.0
 11
534.5696652072056
 21
44.82851856235342
 31
0.0
  0
LINE
  5
D4
330
1F
100
AcDbEntity
  8
0
100
AcDbLine
 10
534.5696652072056
 20
44.82851856235342
 30
0.0
 11
534.192425084741
 21
44.98757981923513
 31
0.0
  0
LINE
  5
D5
330
1F
100
AcDbEntity
  8
0
100
AcDbLine
 10
535.4951790596523
 20
44.03602771982396
 30
0.0
 11
535.2288995931784
 21
44.34700334454787
 31
0.0
  0
LINE
  5
D6
330
1F
100
AcDbEntity
  8
0
100
AcDbLine
 10
522.4848284624439
 20
-4.56308438522055
 30
0.0
 11
522.1653295701456
 21
-4.342113973549863
 31
0.0
  0
LINE
  5
D7
330
1F
100
AcDbEntity
  8
0
100
AcDbLine
 10
534.192425084741
 20
44.98757981923513
 30
0.0
 11
533.6806518854909
 21
45.09700334454786
 31
0.0
  0
LINE
  5
D8
330
1F
100
AcDbEntity
  8
0
100
AcDbLine
 10
522.1653295701456
 20
-4.342113973549863
 30
0.0
 11
521.883534689536
 21
-4.074720798102057
 31
0.0
  0
LINE
  5
D9
330
1F
100
AcDbEntity
  8
0
100
AcDbLine
 10
535.710414810984
 20
43.68776895857501
 30
0.0
 11
535.4951790596523
 21
44.03602771982396
 31
0.0
  0
LINE
  5
DA
330
1F
100
AcDbEntity
  8
0
100
AcDbLine
 10
532.9788995931785
 20
45.09700334454786
 30
0.0
 11
528.9786756675281
 21
45.12066453434381
 31
0.0
  0
LINE
  5
DB
330
1F
100
AcDbEntity
  8
0
100
AcDbLine
 10
523.2059342947523
 20
-4.846032389581912
 30
0.0
 11
522.8344589069549
 21
-4.732394802162074
 31
0.0
  0
LINE
  5
DC
330
1F
100
AcDbEntity
  8
0
100
AcDbLine
 10
535.9788995931784
 20
-1.906736290916803
 30
0.0
 11
535.9788995931784
 21
42.09700334454786
 31
0.0
  0
LINE
  5
DD
330
1F
100
AcDbEntity
  8
0
100
AcDbLine
 10
522.8344589069549
 20
-4.732394802162074
 30
0.0
 11
522.4848284624439
 21
-4.56308438522055
 31
0.0
  0
LINE
  5
DE
330
1F
100
AcDbEntity
  8
0
100
AcDbLine
 10
535.7504649902728
 20
-3.054219532720779
 30
0.0
 11
535.5768533998787
 21
-3.405946376273207
 31
0.0
  0
LINE
  5
DF
330
1F
100
AcDbEntity
  8
0
100
AcDbLine
 10
534.4786099933884
 20
-4.502820772766245
 30
0.0
 11
534.1266668738745
 21
-4.675993511444566
 31
0.0
  0
LINE
  5
E0
330
1F
100
AcDbEntity
  8
0
100
AcDbLine
 10
534.8049159896582
 20
-4.285157837031014
 30
0.0
 11
534.4786099933884
 21
-4.502820772766245
 31
0.0
  0
LINE
  5
E1
330
1F
100
AcDbEntity
  8
0
100
AcDbLine
 10
534.1266668738745
 20
-4.675993511444566
 30
0.0
 11
533.755118029112
 21
-4.801708318647987
 31
0.0
  0
LINE
  5
E2
330
1F
100
AcDbEntity
  8
0
100
AcDbLine
 10
533.755118029112
 20
-4.801708318647987
 30
0.0
 11
533.3703308486969
 21
-4.877810766589437
 31
0.0
  0
LINE
  5
E3
330
1F
100
AcDbEntity
  8
0
100
AcDbLine
 10
535.9532254830556
 20
-2.298135827022722
 30
0.0
 11
535.876643140764
 21
-2.682827783844852
 31
0.0
  0
LINE
  5
E4
330
1F
100
AcDbEntity
  8
0
100
AcDbLine
 10
535.876643140764
 20
-2.682827783844852
 30
0.0
 11
535.7504649902728
 21
-3.054219532720779
 31
0.0
  0
LINE
  5
E5
330
1F
100
AcDbEntity
  8
0
100
AcDbLine
 10
535.9788995931784
 20
42.79875563686031
 30
0.0
 11
535.8694760678658
 21
43.31052883611029
 31
0.0
  0
LINE
  5
E6
330
1F
100
AcDbEntity
  8
0
100
AcDbLine
 10
523.5904502687996
 20
-4.901303817248005
 30
0.0
 11
523.2059342947523
 21
-4.846032389581912
 31
0.0
  0
LINE
  5
E7
330
1F
100
AcDbEntity
  8
0
100
AcDbLine
 10
535.9788995931784
 20
-1.906736290916803
 30
0.0
 11
535.9532254830556
 21
-2.298135827022722
 31
0.0
  0
LINE
  5
E8
330
1F
100
AcDbEntity
  8
0
100
AcDbLine
 10
528.9786756675281
 20
45.12066453434381
 30
0.0
 11
528.561492904375
 21
45.13894601795722
 31
0.0
  0
LINE
  5
E9
330
1F
100
AcDbEntity
  8
0
100
AcDbLine
 10
535.9788995931784
 20
42.09700334454786
 30
0.0
 11
535.9788995931784
 21
42.79875563686031
 31
0.0
  0
LINE
  5
EA
330
1F
100
AcDbEntity
  8
0
100
AcDbLine
 10
533.6806518854909
 20
45.09700334454786
 30
0.0
 11
532.9788995931785
 21
45.09700334454786
 31
0.0
  0
LINE
  5
EB
330
1F
100
AcDbEntity
  8
0
100
AcDbLine
 10
536.0053377915232
 20
42.50555152421128
 30
0.0
 11
535.9788995931784
 21
42.79875563686031
 31
0.0
  0
LINE
  5
EC
330
1F
100
AcDbEntity
  8
0
100
AcDbLine
 10
535.9788995931784
 20
42.09700334454786
 30
0.0
 11
536.0053377915232
 21
42.50555152421128
 31
0.0
  0
LINE
  5
ED
330
1F
100
AcDbEntity
  8
0
100
AcDbLine
 10
533.3874477728418
 20
45.12344154289254
 30
0.0
 11
532.9788995931785
 21
45.09700334454786
 31
0.0
  0
LINE
  5
EE
330
1F
100
AcDbEntity
  8
0
100
AcDbLine
 10
533.6806518854909
 20
45.09700334454786
 30
0.0
 11
533.3874477728418
 21
45.12344154289254
 31
0.0
  0
LINE
  5
EF
330
1F
100
AcDbEntity
  8
0
100
AcDbLine
 10
405.058677554172
 20
-344.6693786667217
 30
0.0
 11
405.3994192912813
 21
-342.0811882156965
 31
0.0
  0
LINE
  5
F0
330
1F
100
AcDbEntity
  8
0
100
AcDbLine
 10
285.7401610283906
 20
-339.4929977646713
 30
0.0
 11
286.739165253437
 21
-337.0811882156965
 31
0.0
  0
LINE
  5
F1
330
1F
100
AcDbEntity
  8
0
100
AcDbLine
 10
402.4704871031469
 20
-335.010120403831
 30
0.0
 11
400.3994192912813
 21
-333.4209341778521
 31
0.0
  0
LINE
  5
F2
330
1F
100
AcDbEntity
  8
0
100
AcDbLine
 10
395.3994192912814
 20
-352.0811882156965
 30
0.0
 11
397.9876097423065
 21
-351.7404464785872
 31
0.0
  0
LINE
  5
F3
330
1F
100
AcDbEntity
  8
0
100
AcDbLine
 10
288.3283514794159
 20
-349.152256027562
 30
0.0
 11
286.739165253437
 21
-347.0811882156965
 31
0.0
  0
LINE
  5
F4
330
1F
100
AcDbEntity
  8
0
100
AcDbLine
 10
286.739165253437
 20
-337.0811882156965
 30
0.0
 11
288.3283514794159
 21
-335.010120403831
 31
0.0
  0
LINE
  5
F5
330
1F
100
AcDbEntity
  8
0
100
AcDbLine
 10
286.739165253437
 20
-347.0811882156965
 30
0.0
 11
285.7401610283906
 21
-344.6693786667217
 31
0.0
  0
LINE
  5
F6
330
1F
100
AcDbEntity
  8
0
100
AcDbLine
 10
285.7401610283906
 20
-344.6693786667217
 30
0.0
 11
285.3994192912813
 21
-342.0811882156965
 31
0.0
  0
LINE
  5
F7
330
1F
100
AcDbEntity
  8
0
100
AcDbLine
 10
404.0596733291257
 20
-337.0811882156965
 30
0.0
 11
402.4704871031469
 21
-335.010120403831
 31
0.0
  0
LINE
  5
F8
330
1F
100
AcDbEntity
  8
0
100
AcDbLine
 10
290.3994192912813
 20
-350.7414422535409
 30
0.0
 11
288.3283514794159
 21
-349.152256027562
 31
0.0
  0
LINE
  5
F9
330
1F
100
AcDbEntity
  8
0
100
AcDbLine
 10
400.3994192912813
 20
-333.4209341778521
 30
0.0
 11
397.9876097423065
 21
-332.4219299528058
 31
0.0
  0
LINE
  5
FA
330
1F
100
AcDbEntity
  8
0
100
AcDbLine
 10
543.3994192912813
 20
-305.0811882156965
 30
0.0
 11
556.3994192912814
 21
-305.0811882156965
 31
0.0
  0
LINE
  5
FB
330
1F
100
AcDbEntity
  8
0
100
AcDbLine
 10
395.3994192912814
 20
-332.0811882156964
 30
0.0
 11
295.3994192912814
 21
-332.0811882156964
 31
0.0
  0
LINE
  5
FC
330
1F
100
AcDbEntity
  8
0
100
AcDbLine
 10
290.3994192912813
 20
-333.4209341778521
 30
0.0
 11
292.8112288402561
 21
-332.4219299528058
 31
0.0
  0
LINE
  5
FD
330
1F
100
AcDbEntity
  8
0
100
AcDbLine
 10
134.3991955183251
 20
-379.0811882156964
 30
0.0
 11
147.3991955183251
 21
-379.0811882156964
 31
0.0
  0
LINE
  5
FE
330
1F
100
AcDbEntity
  8
0
100
AcDbLine
 10
405.058677554172
 20
-339.4929977646713
 30
0.0
 11
404.0596733291257
 21
-337.0811882156965
 31
0.0
  0
LINE
  5
FF
330
1F
100
AcDbEntity
  8
0
100
AcDbLine
 10
404.0596733291257
 20
-347.0811882156965
 30
0.0
 11
405.058677554172
 21
-344.6693786667217
 31
0.0
  0
LINE
  5
100
330
1F
100
AcDbEntity
  8
0
100
AcDbLine
 10
543.342762496906
 20
-318.0795819294443
 30
0.0
 11
556.342762496906
 21
-318.0795819294443
 31
0.0
  0
LINE
  5
101
330
1F
100
AcDbEntity
  8
0
100
AcDbLine
 10
543.4342882808919
 20
-366.0817963238125
 30
0.0
 11
556.434288280892
 21
-366.0817963238125
 31
0.0
  0
LINE
  5
102
330
1F
100
AcDbEntity
  8
0
100
AcDbLine
 10
285.3994192912813
 20
-342.0811882156965
 30
0.0
 11
285.7401610283906
 21
-339.4929977646713
 31
0.0
  0
LINE
  5
103
330
1F
100
AcDbEntity
  8
0
100
AcDbLine
 10
397.9876097423065
 20
-332.4219299528058
 30
0.0
 11
395.3994192912814
 21
-332.0811882156964
 31
0.0
  0
LINE
  5
104
330
1F
100
AcDbEntity
  8
0
100
AcDbLine
 10
397.9876097423065
 20
-351.7404464785872
 30
0.0
 11
400.3994192912813
 21
-350.7414422535409
 31
0.0
  0
LINE
  5
105
330
1F
100
AcDbEntity
  8
0
100
AcDbLine
 10
405.3994192912813
 20
-342.0811882156965
 30
0.0
 11
405.058677554172
 21
-339.4929977646713
 31
0.0
  0
LINE
  5
106
330
1F
100
AcDbEntity
  8
0
100
AcDbLine
 10
288.3283514794159
 20
-335.010120403831
 30
0.0
 11
290.3994192912813
 21
-333.4209341778521
 31
0.0
  0
LINE
  5
107
330
1F
100
AcDbEntity
  8
0
100
AcDbLine
 10
402.4704871031469
 20
-349.152256027562
 30
0.0
 11
404.0596733291257
 21
-347.0811882156965
 31
0.0
  0
LINE
  5
108
330
1F
100
AcDbEntity
  8
0
100
AcDbLine
 10
543.3994192912813
 20
-305.0811882156965
 30
0.0
 11
543.342762496906
 21
-318.0795819294443
 31
0.0
  0
LINE
  5
109
330
1F
100
AcDbEntity
  8
0
100
AcDbLine
 10
295.3994192912814
 20
-352.0811882156965
 30
0.0
 11
292.8112288402561
 21
-351.7404464785872
 31
0.0
  0
LINE
  5
10A
330
1F
100
AcDbEntity
  8
0
100
AcDbLine
 10
292.8112288402561
 20
-332.4219299528058
 30
0.0
 11
295.3994192912814
 21
-332.0811882156964
 31
0.0
  0
LINE
  5
10B
330
1F
100
AcDbEntity
  8
0
100
AcDbLine
 10
532.3994192912813
 20
-392.0811882156965
 30
0.0
 11
532.3994192912813
 21
-402.0811882156965
 31
0.0
  0
LINE
  5
10C
330
1F
100
AcDbEntity
  8
0
100
AcDbLine
 10
120.3994192912814
 20
-392.0811882156964
 30
0.0
 11
158.3994192912814
 21
-392.0811882156964
 31
0.0
  0
LINE
  5
10D
330
1F
100
AcDbEntity
  8
0
100
AcDbLine
 10
556.3994192912814
 20
-305.0811882156965
 30
0.0
 11
556.342762496906
 21
-318.0795819294443
 31
0.0
  0
LINE
  5
10E
330
1F
100
AcDbEntity
  8
0
100
AcDbLine
 10
134.3991955183251
 20
-379.0811882156964
 30
0.0
 11
134.3991955183251
 21
-366.0817963238124
 31
0.0
  0
LINE
  5
10F
330
1F
100
AcDbEntity
  8
0
100
AcDbLine
 10
532.3994192912813
 20
-352.0811882156965
 30
0.0
 11
570.3994192912813
 21
-352.0811882156965
 31
0.0
  0
LINE
  5
110
330
1F
100
AcDbEntity
  8
0
100
AcDbLine
 10
400.3994192912813
 20
-350.7414422535409
 30
0.0
 11
402.4704871031469
 21
-349.152256027562
 31
0.0
  0
LINE
  5
111
330
1F
100
AcDbEntity
  8
0
100
AcDbLine
 10
532.3994192912813
 20
-332.0811882156965
 30
0.0
 11
532.3994192912813
 21
-352.0811882156965
 31
0.0
  0
LINE
  5
112
330
1F
100
AcDbEntity
  8
0
100
AcDbLine
 10
532.3994192912813
 20
-332.0811882156965
 30
0.0
 11
570.3994192912813
 21
-332.0811882156965
 31
0.0
  0
LINE
  5
113
330
1F
100
AcDbEntity
  8
0
100
AcDbLine
 10
292.8112288402561
 20
-351.7404464785872
 30
0.0
 11
290.3994192912813
 21
-350.7414422535409
 31
0.0
  0
LINE
  5
114
330
1F
100
AcDbEntity
  8
0
100
AcDbLine
 10
134.3991955183251
 20
-318.0795819294442
 30
0.0
 11
134.3991955183251
 21
-305.0512709673179
 31
0.0
  0
LINE
  5
115
330
1F
100
AcDbEntity
  8
0
100
AcDbLine
 10
147.3991955183251
 20
-318.0795819294443
 30
0.0
 11
147.3991955183251
 21
-305.0512709673179
 31
0.0
  0
LINE
  5
116
330
1F
100
AcDbEntity
  8
0
100
AcDbLine
 10
134.3991955183251
 20
-318.0795819294442
 30
0.0
 11
147.3991955183251
 21
-318.0795819294443
 31
0.0
  0
LINE
  5
117
330
1F
100
AcDbEntity
  8
0
100
AcDbLine
 10
543.4342882808919
 20
-366.0817963238125
 30
0.0
 11
543.3994192912813
 21
-379.0811882156965
 31
0.0
  0
LINE
  5
118
330
1F
100
AcDbEntity
  8
0
100
AcDbLine
 10
556.434288280892
 20
-366.0817963238125
 30
0.0
 11
556.3994192912814
 21
-379.0811882156965
 31
0.0
  0
LINE
  5
119
330
1F
100
AcDbEntity
  8
0
100
AcDbLine
 10
543.3994192912813
 20
-379.0811882156965
 30
0.0
 11
556.3994192912814
 21
-379.0811882156965
 31
0.0
  0
LINE
  5
11A
330
1F
100
AcDbEntity
  8
0
100
AcDbLine
 10
147.3991955183251
 20
-379.0811882156964
 30
0.0
 11
147.3991955183251
 21
-366.0817963238124
 31
0.0
  0
LINE
  5
11B
330
1F
100
AcDbEntity
  8
0
100
AcDbLine
 10
134.3991955183251
 20
-366.0817963238124
 30
0.0
 11
147.3991955183251
 21
-366.0817963238124
 31
0.0
  0
LINE
  5
11C
330
1F
100
AcDbEntity
  8
0
100
AcDbLine
 10
134.3991955183251
 20
-305.0512709673179
 30
0.0
 11
147.3991955183251
 21
-305.0512709673179
 31
0.0
  0
LINE
  5
11D
330
1F
100
AcDbEntity
  8
0
100
AcDbLine
 10
532.3994192912813
 20
-282.0811882156965
 30
0.0
 11
532.3994192912813
 21
-292.0811882156965
 31
0.0
  0
LINE
  5
11E
330
1F
100
AcDbEntity
  8
0
100
AcDbLine
 10
158.3994192912814
 20
-292.0811882156964
 30
0.0
 11
158.3994192912814
 21
-282.0811882156964
 31
0.0
  0
LINE
  5
11F
330
1F
100
AcDbEntity
  8
0
100
AcDbLine
 10
158.3994192912814
 20
-282.0811882156964
 30
0.0
 11
532.3994192912813
 21
-282.0811882156965
 31
0.0
  0
LINE
  5
120
330
1F
100
AcDbEntity
  8
0
100
AcDbLine
 10
158.3994192912814
 20
-402.0811882156965
 30
0.0
 11
158.3994192912814
 21
-392.0811882156964
 31
0.0
  0
LINE
  5
121
330
1F
100
AcDbEntity
  8
0
100
AcDbLine
 10
120.3994192912814
 20
-392.0811882156964
 30
0.0
 11
120.3994192912814
 21
-352.0811882156965
 31
0.0
  0
LINE
  5
122
330
1F
100
AcDbEntity
  8
0
100
AcDbLine
 10
120.3994192912814
 20
-352.0811882156965
 30
0.0
 11
158.3994192912814
 21
-352.0811882156965
 31
0.0
  0
LINE
  5
123
330
1F
100
AcDbEntity
  8
0
100
AcDbLine
 10
158.3994192912814
 20
-352.0811882156965
 30
0.0
 11
158.3994192912814
 21
-332.0811882156964
 31
0.0
  0
LINE
  5
124
330
1F
100
AcDbEntity
  8
0
100
AcDbLine
 10
120.3994192912814
 20
-332.0811882156964
 30
0.0
 11
158.3994192912814
 21
-332.0811882156964
 31
0.0
  0
LINE
  5
125
330
1F
100
AcDbEntity
  8
0
100
AcDbLine
 10
120.3994192912814
 20
-332.0811882156964
 30
0.0
 11
120.3994192912814
 21
-292.0811882156964
 31
0.0
  0
LINE
  5
126
330
1F
100
AcDbEntity
  8
0
100
AcDbLine
 10
120.3994192912814
 20
-292.0811882156964
 30
0.0
 11
158.3994192912814
 21
-292.0811882156964
 31
0.0
  0
LINE
  5
127
330
1F
100
AcDbEntity
  8
0
100
AcDbLine
 10
532.3994192912813
 20
-292.0811882156965
 30
0.0
 11
570.3994192912813
 21
-292.0811882156965
 31
0.0
  0
LINE
  5
128
330
1F
100
AcDbEntity
  8
0
100
AcDbLine
 10
570.3994192912813
 20
-292.0811882156965
 30
0.0
 11
570.3994192912813
 21
-332.0811882156965
 31
0.0
  0
LINE
  5
129
330
1F
100
AcDbEntity
  8
0
100
AcDbLine
 10
570.3994192912813
 20
-352.0811882156965
 30
0.0
 11
570.3994192912813
 21
-392.0811882156965
 31
0.0
  0
LINE
  5
12A
330
1F
100
AcDbEntity
  8
0
100
AcDbLine
 10
532.3994192912813
 20
-392.0811882156965
 30
0.0
 11
570.3994192912813
 21
-392.0811882156965
 31
0.0
  0
LINE
  5
12B
330
1F
100
AcDbEntity
  8
0
100
AcDbLine
 10
532.3994192912813
 20
-402.0811882156965
 30
0.0
 11
158.3994192912814
 21
-402.0811882156965
 31
0.0
  0
LINE
  5
12C
330
1F
100
AcDbEntity
  8
0
100
AcDbLine
 10
521.1259819891859
 20
-115.7786685569671
 30
0.0
 11
521.057833641764
 21
-116.2963066471721
 31
0.0
  0
LINE
  5
12D
330
1F
100
AcDbEntity
  8
0
100
AcDbLine
 10
552.057833641764
 20
-134.2963066471721
 30
0.0
 11
539.0578336417639
 21
-134.2963066471721
 31
0.0
  0
LINE
  5
12E
330
1F
100
AcDbEntity
  8
0
100
AcDbLine
 10
570.0578336417639
 20
-192.2963066471721
 30
0.0
 11
570.057833641764
 21
-116.2963066471721
 31
0.0
  0
LINE
  5
12F
330
1F
100
AcDbEntity
  8
0
100
AcDbLine
 10
552.057833641764
 20
-194.2963066471721
 30
0.0
 11
568.0578336417639
 21
-194.2963066471721
 31
0.0
  0
LINE
  5
130
330
1F
100
AcDbEntity
  8
0
100
AcDbLine
 10
539.057833641764
 20
-174.2963066471721
 30
0.0
 11
552.057833641764
 21
-174.2963066471721
 31
0.0
  0
LINE
  5
131
330
1F
100
AcDbEntity
  8
0
100
AcDbLine
 10
523.057833641764
 20
-194.2963066471721
 30
0.0
 11
539.0578336417639
 21
-194.2963066471721
 31
0.0
  0
LINE
  5
132
330
1F
100
AcDbEntity
  8
0
100
AcDbLine
 10
521.057833641764
 20
-116.2963066471721
 30
0.0
 11
521.057833641764
 21
-192.2963066471721
 31
0.0
  0
LINE
  5
133
330
1F
100
AcDbEntity
  8
0
100
AcDbLine
 10
521.325782834195
 20
-115.2963066471721
 30
0.0
 11
521.1259819891859
 21
-115.7786685569671
 31
0.0
  0
LINE
  5
134
330
1F
100
AcDbEntity
  8
0
100
AcDbLine
 10
521.6436200793909
 20
-114.882093084799
 30
0.0
 11
521.325782834195
 21
-115.2963066471721
 31
0.0
  0
LINE
  5
135
330
1F
100
AcDbEntity
  8
0
100
AcDbLine
 10
522.057833641764
 20
-114.5642558396032
 30
0.0
 11
521.6436200793909
 21
-114.882093084799
 31
0.0
  0
LINE
  5
136
330
1F
100
AcDbEntity
  8
0
100
AcDbLine
 10
522.540195551559
 20
-114.364454994594
 30
0.0
 11
522.057833641764
 21
-114.5642558396032
 31
0.0
  0
LINE
  5
137
330
1F
100
AcDbEntity
  8
0
100
AcDbLine
 10
523.057833641764
 20
-114.2963066471721
 30
0.0
 11
522.540195551559
 21
-114.364454994594
 31
0.0
  0
LINE
  5
138
330
1F
100
AcDbEntity
  8
0
100
AcDbLine
 10
539.057833641764
 20
-114.2963066471721
 30
0.0
 11
523.057833641764
 21
-114.2963066471721
 31
0.0
  0
LINE
  5
139
330
1F
100
AcDbEntity
  8
0
100
AcDbLine
 10
568.057833641764
 20
-114.2963066471721
 30
0.0
 11
552.057833641764
 21
-114.2963066471721
 31
0.0
  0
LINE
  5
13A
330
1F
100
AcDbEntity
  8
0
100
AcDbLine
 10
568.575471731969
 20
-114.364454994594
 30
0.0
 11
568.057833641764
 21
-114.2963066471721
 31
0.0
  0
LINE
  5
13B
330
1F
100
AcDbEntity
  8
0
100
AcDbLine
 10
569.057833641764
 20
-114.5642558396032
 30
0.0
 11
568.575471731969
 21
-114.364454994594
 31
0.0
  0
LINE
  5
13C
330
1F
100
AcDbEntity
  8
0
100
AcDbLine
 10
569.4720472041371
 20
-114.882093084799
 30
0.0
 11
569.057833641764
 21
-114.5642558396032
 31
0.0
  0
LINE
  5
13D
330
1F
100
AcDbEntity
  8
0
100
AcDbLine
 10
569.7898844493328
 20
-115.2963066471721
 30
0.0
 11
569.4720472041371
 21
-114.882093084799
 31
0.0
  0
LINE
  5
13E
330
1F
100
AcDbEntity
  8
0
100
AcDbLine
 10
569.989685294342
 20
-115.7786685569671
 30
0.0
 11
569.7898844493328
 21
-115.2963066471721
 31
0.0
  0
LINE
  5
13F
330
1F
100
AcDbEntity
  8
0
100
AcDbLine
 10
570.057833641764
 20
-116.2963066471721
 30
0.0
 11
569.989685294342
 21
-115.7786685569671
 31
0.0
  0
LINE
  5
140
330
1F
100
AcDbEntity
  8
0
100
AcDbLine
 10
522.5401955515589
 20
-194.2281582997502
 30
0.0
 11
522.0578336417639
 21
-194.028357454741
 31
0.0
  0
LINE
  5
141
330
1F
100
AcDbEntity
  8
0
100
AcDbLine
 10
521.325782834195
 20
-193.2963066471721
 30
0.0
 11
521.1259819891858
 21
-192.8139447373772
 31
0.0
  0
LINE
  5
142
330
1F
100
AcDbEntity
  8
0
100
AcDbLine
 10
521.1259819891858
 20
-192.8139447373772
 30
0.0
 11
521.057833641764
 21
-192.2963066471721
 31
0.0
  0
LINE
  5
143
330
1F
100
AcDbEntity
  8
0
100
AcDbLine
 10
522.0578336417639
 20
-194.028357454741
 30
0.0
 11
521.6436200793909
 21
-193.7105202095452
 31
0.0
  0
LINE
  5
144
330
1F
100
AcDbEntity
  8
0
100
AcDbLine
 10
521.6436200793909
 20
-193.7105202095452
 30
0.0
 11
521.325782834195
 21
-193.2963066471721
 31
0.0
  0
LINE
  5
145
330
1F
100
AcDbEntity
  8
0
100
AcDbLine
 10
569.989685294342
 20
-192.8139447373772
 30
0.0
 11
569.7898844493328
 21
-193.2963066471721
 31
0.0
  0
LINE
  5
146
330
1F
100
AcDbEntity
  8
0
100
AcDbLine
 10
539.057833641764
 20
-174.2963066471721
 30
0.0
 11
539.0578336417639
 21
-194.2963066471721
 31
0.0
  0
LINE
  5
147
330
1F
100
AcDbEntity
  8
0
100
AcDbLine
 10
568.575471731969
 20
-194.2281582997502
 30
0.0
 11
568.0578336417639
 21
-194.2963066471721
 31
0.0
  0
LINE
  5
148
330
1F
100
AcDbEntity
  8
0
100
AcDbLine
 10
569.057833641764
 20
-194.028357454741
 30
0.0
 11
568.575471731969
 21
-194.2281582997502
 31
0.0
  0
LINE
  5
149
330
1F
100
AcDbEntity
  8
0
100
AcDbLine
 10
552.057833641764
 20
-134.2963066471721
 30
0.0
 11
552.057833641764
 21
-114.2963066471721
 31
0.0
  0
LINE
  5
14A
330
1F
100
AcDbEntity
  8
0
100
AcDbLine
 10
539.057833641764
 20
-114.2963066471721
 30
0.0
 11
539.0578336417639
 21
-134.2963066471721
 31
0.0
  0
LINE
  5
14B
330
1F
100
AcDbEntity
  8
0
100
AcDbLine
 10
523.057833641764
 20
-194.2963066471721
 30
0.0
 11
522.5401955515589
 21
-194.2281582997502
 31
0.0
  0
LINE
  5
14C
330
1F
100
AcDbEntity
  8
0
100
AcDbLine
 10
552.057833641764
 20
-194.2963066471721
 30
0.0
 11
552.057833641764
 21
-174.2963066471721
 31
0.0
  0
LINE
  5
14D
330
1F
100
AcDbEntity
  8
0
100
AcDbLine
 10
569.472047204137
 20
-193.7105202095452
 30
0.0
 11
569.057833641764
 21
-194.028357454741
 31
0.0
  0
LINE
  5
14E
330
1F
100
AcDbEntity
  8
0
100
AcDbLine
 10
569.7898844493328
 20
-193.2963066471721
 30
0.0
 11
569.472047204137
 21
-193.7105202095452
 31
0.0
  0
LINE
  5
14F
330
1F
100
AcDbEntity
  8
0
100
AcDbLine
 10
570.0578336417639
 20
-192.2963066471721
 30
0.0
 11
569.989685294342
 21
-192.8139447373772
 31
0.0
  0
LINE
  5
150
330
1F
100
AcDbEntity
  8
0
100
AcDbLine
 10
295.3994192912814
 20
-352.0811882156965
 30
0.0
 11
395.3994192912814
 21
-352.0811882156965
 31
0.0
  0
ENDSEC
  0
SECTION
  2
OBJECTS
  0
DICTIONARY
  5
C
330
0
100
AcDbDictionary
  3
ACAD_GROUP
350
D
  3
ACAD_LAYOUT
350
1A
  3
ACAD_MATERIAL
350
43
  3
ACAD_MLEADERSTYLE
350
6B
  3
ACAD_MLINESTYLE
350
17
  3
ACAD_PLOTSETTINGS
350
19
  3
ACAD_SCALELIST
350
47
  3
ACAD_VISUALSTYLE
350
2A
  3
ACDBHEADERROUNDTRIPXREC
350
151
  3
ACDBVARIABLEDICTIONARY
350
172
  0
DICTIONARY
  5
179
330
8
100
AcDbDictionary
280
     1
  3
ACAD_XREC_ROUNDTRIP
360
17A
  0
DICTIONARY
  5
D
102
{ACAD_REACTORS
330
C
102
}
330
C
100
AcDbDictionary
  0
DICTIONARY
  5
1A
102
{ACAD_REACTORS
330
C
102
}
330
C
100
AcDbDictionary
  0
DICTIONARY
  5
43
102
{ACAD_REACTORS
330
C
102
}
330
C
100
AcDbDictionary
  3
BYBLOCK
350
45
  3
BYLAYER
350
44
  3
GLOBAL
350
46
  0
DICTIONARY
  5
6B
102
{ACAD_REACTORS
330
C
102
}
330
C
100
AcDbDictionary
  3
STANDARD
350
6C
  0
DICTIONARY
  5
17
102
{ACAD_REACTORS
330
C
102
}
330
C
100
AcDbDictionary
  3
STANDARD
350
18
  0
DICTIONARY
  5
19
102
{ACAD_REACTORS
330
C
102
}
330
C
100
AcDbDictionary
  0
DICTIONARY
  5
47
102
{ACAD_REACTORS
330
C
102
}
330
C
100
AcDbDictionary
  3
A0
350
48
  3
A1
350
49
  3
A2
350
4A
  3
A3
350
4B
  3
A4
350
4C
  3
A5
350
4D
  3
A6
350
4E
  3
A7
350
4F
  3
A8
350
50
  3
A9
350
51
  3
B0
350
52
  3
B1
350
53
  3
B2
350
54
  3
B3
350
55
  3
B4
350
56
  3
B5
350
57
  3
B6
350
58
  3
B7
350
59
  3
B8
350
5A
  3
B9
350
5B
  3
C0
350
5C
  3
C1
350
5D
  3
C2
350
5E
  3
C3
350
5F
  3
C4
350
60
  3
C5
350
61
  3
C6
350
62
  3
C7
350
63
  3
C8
350
64
  3
C9
350
65
  3
D0
350
66
  3
D1
350
67
  3
D2
350
68
  0
DICTIONARY
  5
2A
102
{ACAD_REACTORS
330
C
102
}
330
C
100
AcDbDictionary
  3
2DWIREFRAME
350
2F
  3
BASIC
350
32
  3
BRIGHTEN
350
36
  3
COLORCHANGE
350
3A
  3
CONCEPTUAL
350
34
  3
DIM
350
35
  3
EDGECOLOROFF
350
3D
  3
FACEPATTERN
350
39
  3
FLAT
350
2B
  3
FLATWITHEDGES
350
2C
  3
GOURAUD
350
2D
  3
GOURAUDWITHEDGES
350
2E
  3
HIDDEN
350
31
  3
JITTEROFF
350
3B
  3
LINEPATTERN
350
38
  3
OVERHANGOFF
350
3C
  3
REALISTIC
350
33
  3
SHADED
350
42
  3
SHADED_WITH_EDGES
350
41
  3
SHADES_OF_GRAY
350
3E
  3
SKETCHY
350
3F
  3
THICKEN
350
37
  3
WIREFRAME
350
30
  3
X-RAY
350
40
  0
DICTIONARY
  5
151
102
{ACAD_REACTORS
330
C
102
}
330
C
100
AcDbDictionary
  3
CEPSNID
350
15B
  3
CEPSNTYPE
350
15A
  3
DIMSTYLEDATA
350
171
  3
FINGERPRINTGUID
350
15C
  3
HYPERLINKBASE
350
154
  3
INSUNITS
350
159
  3
LAYOUTDICT
350
156
  3
LWETCUNION
350
158
  3
PLOTSETDICT
350
157
  3
PSVPSCALE
350
15E
  3
PUCSBASE
350
161
  3
PUCSORGBACK
350
167
  3
PUCSORGBOTTOM
350
163
  3
PUCSORGFRONT
350
166
  3
PUCSORGLEFT
350
164
  3
PUCSORGRIGHT
350
165
  3
PUCSORGTOP
350
162
  3
PUCSORTHOREF
350
15F
  3
PUCSORTHOVIEW
350
160
  3
STYLESHEET
350
155
  3
TSTACKALIGN
350
152
  3
TSTACKSIZE
350
153
  3
UCSBASE
350
16A
  3
UCSORGBACK
350
170
  3
UCSORGBOTTOM
350
16C
  3
UCSORGFRONT
350
16F
  3
UCSORGLEFT
350
16D
  3
UCSORGRIGHT
350
16E
  3
UCSORGTOP
350
16B
  3
UCSORTHOREF
350
168
  3
UCSORTHOVIEW
350
169
  3
VERSIONGUID
350
15D
  0
DICTIONARY
  5
172
102
{ACAD_REACTORS
330
C
102
}
330
C
100
AcDbDictionary
  3
CANNOSCALE
350
17B
  3
CMLEADERSTYLE
350
174
  3
CTABLESTYLE
350
173
  3
DIMASSOC
350
177
  3
HIDETEXT
350
178
  3
MSLTSCALE
350
17C
  0
XRECORD
  5
17A
102
{ACAD_REACTORS
330
179
102
}
330
179
100
AcDbXrecord
102
VTR_0.000_0.000_1.000_1.000_VISUALSTYLE
340
2F
102
VTR_0.000_0.000_1.000_1.000_GRIDDISPLAY
 70
     3
102
VTR_0.000_0.000_1.000_1.000_GRIDMAJOR
 70
     5
102
VTR_0.000_0.000_1.000_1.000_DEFAULTLIGHTING
280
     1
102
VTR_0.000_0.000_1.000_1.000_DEFAULTLIGHTINGTYPE
 70
     1
102
VTR_0.000_0.000_1.000_1.000_BRIGHTNESS
141
0.0
102
VTR_0.000_0.000_1.000_1.000_CONTRAST
142
0.0
  0
MATERIAL
  5
45
102
{ACAD_REACTORS
330
43
102
}
102
{ACAD_XDICTIONARY
360
17F
102
}
330
43
100
AcDbMaterial
  1
BYBLOCK
  0
MATERIAL
  5
44
102
{ACAD_REACTORS
330
43
102
}
102
{ACAD_XDICTIONARY
360
17D
102
}
330
43
100
AcDbMaterial
  1
BYLAYER
  0
MATERIAL
  5
46
102
{ACAD_REACTORS
330
43
102
}
102
{ACAD_XDICTIONARY
360
181
102
}
330
43
100
AcDbMaterial
  1
GLOBAL
  0
ACAD_PROXY_OBJECT
  5
6C
102
{ACAD_REACTORS
330
6B
102
}
330
6B
100
AcDbProxyObject
 90
      499
 91
      505
 93
      610
310
40901902A4063FBFFFFFE056BD1B81E855B9FC0AD7A3703D0AD73F4214DD185B99185C9900AD7A3703D0AC73F90141901A02B5E8DC0F42B1CFC02B5E8DC0F42B1CFE5764000000000000300FC0
340
14
340
0
340
11
340
0
 94
        0
1001
ACAD_MLEADERVER
1070
     2
  0
MLINESTYLE
  5
18
102
{ACAD_REACTORS
330
17
102
}
330
17
100
AcDbMlineStyle
  2
Standard
 70
     0
  3

 62
   256
 51
90.0
 52
90.0
 71
     2
 49
0.5
 62
   256
  6
BYLAYER
 49
-0.5
 62
   256
  6
BYLAYER
  0
ACAD_PROXY_OBJECT
  5
48
102
{ACAD_REACTORS
330
47
102
}
330
47
100
AcDbProxyObject
 90
      499
 91
      503
 93
       41
310
903313A31580
  0
ACAD_PROXY_OBJECT
  5
49
102
{ACAD_REACTORS
330
47
102
}
330
47
100
AcDbProxyObject
 90
      499
 91
      503
 93
      105
310
903313A324000000000000004000
  0
ACAD_PROXY_OBJECT
  5
4A
102
{ACAD_REACTORS
330
47
102
}
330
47
100
AcDbProxyObject
 90
      499
 91
      503
 93
      105
310
903313A344000000000000104000
  0
ACAD_PROXY_OBJECT
  5
4B
102
{ACAD_REACTORS
330
47
102
}
330
47
100
AcDbProxyObject
 90
      499
 91
      503
 93
      105
310
903313A354000000000000144000
  0
ACAD_PROXY_OBJECT
  5
4C
102
{ACAD_REACTORS
330
47
102
}
330
47
100
AcDbProxyObject
 90
      499
 91
      503
 93
      105
310
903313A384000000000000204000
  0
ACAD_PROXY_OBJECT
  5
4D
102
{ACAD_REACTORS
330
47
102
}
330
47
100
AcDbProxyObject
 90
      499
 91
      503
 93
      113
310
904313A31304000000000000244000
  0
ACAD_PROXY_OBJECT
  5
4E
102
{ACAD_REACTORS
330
47
102
}
330
47
100
AcDbProxyObject
 90
      499
 91
      503
 93
      113
310
904313A31364000000000000304000
  0
ACAD_PROXY_OBJECT
  5
4F
102
{ACAD_REACTORS
330
47
102
}
330
47
100
AcDbProxyObject
 90
      499
 91
      503
 93
      113
310
904313A32304000000000000344000
  0
ACAD_PROXY_OBJECT
  5
50
102
{ACAD_REACTORS
330
47
102
}
330
47
100
AcDbProxyObject
 90
      499
 91
      503
 93
      113
310
904313A333040000000000003E4000
  0
ACAD_PROXY_OBJECT
  5
51
102
{ACAD_REACTORS
330
47
102
}
330
47
100
AcDbProxyObject
 90
      499
 91
      503
 93
      113
310
904313A34304000000000000444000
  0
ACAD_PROXY_OBJECT
  5
52
102
{ACAD_REACTORS
330
47
102
}
330
47
100
AcDbProxyObject
 90
      499
 91
      503
 93
      113
310
904313A35304000000000000494000
  0
ACAD_PROXY_OBJECT
  5
53
102
{ACAD_REACTORS
330
47
102
}
330
47
100
AcDbProxyObject
 90
      499
 91
      503
 93
      121
310
905313A3130304000000000000594000
  0
ACAD_PROXY_OBJECT
  5
54
102
{ACAD_REACTORS
330
47
102
}
330
47
100
AcDbProxyObject
 90
      499
 91
      503
 93
      105
310
903323A310000000000000010100
  0
ACAD_PROXY_OBJECT
  5
55
102
{ACAD_REACTORS
330
47
102
}
330
47
100
AcDbProxyObject
 90
      499
 91
      503
 93
      105
310
903343A310000000000000410100
  0
ACAD_PROXY_OBJECT
  5
56
102
{ACAD_REACTORS
330
47
102
}
330
47
100
AcDbProxyObject
 90
      499
 91
      503
 93
      105
310
903383A310000000000000810100
  0
ACAD_PROXY_OBJECT
  5
57
102
{ACAD_REACTORS
330
47
102
}
330
47
100
AcDbProxyObject
 90
      499
 91
      503
 93
      113
310
90431303A310000000000000910100
  0
ACAD_PROXY_OBJECT
  5
58
102
{ACAD_REACTORS
330
47
102
}
330
47
100
AcDbProxyObject
 90
      499
 91
      503
 93
      121
310
9053130303A310000000000001650100
  0
ACAD_PROXY_OBJECT
  5
59
102
{ACAD_REACTORS
330
47
102
}
330
47
100
AcDbProxyObject
 90
      499
 91
      503
 93
      257
310
90E312F31323822203D2031272D3022000000000000200FC000000000000284000
  0
ACAD_PROXY_OBJECT
  5
5A
102
{ACAD_REACTORS
330
47
102
}
330
47
100
AcDbProxyObject
 90
      499
 91
      503
 93
      249
310
90D312F363422203D2031272D3022000000000000240FC000000000000284000
  0
ACAD_PROXY_OBJECT
  5
5B
102
{ACAD_REACTORS
330
47
102
}
330
47
100
AcDbProxyObject
 90
      499
 91
      503
 93
      249
310
90D312F333222203D2031272D3022000000000000280FC000000000000284000
  0
ACAD_PROXY_OBJECT
  5
5C
102
{ACAD_REACTORS
330
47
102
}
330
47
100
AcDbProxyObject
 90
      499
 91
      503
 93
      249
310
90D312F313622203D2031272D30220000000000002C0FC000000000000284000
  0
ACAD_PROXY_OBJECT
  5
5D
102
{ACAD_REACTORS
330
47
102
}
330
47
100
AcDbProxyObject
 90
      499
 91
      503
 93
      249
310
90D332F333222203D2031272D30220000000000002E0FC000000000000284000
  0
ACAD_PROXY_OBJECT
  5
5E
102
{ACAD_REACTORS
330
47
102
}
330
47
100
AcDbProxyObject
 90
      499
 91
      503
 93
      241
310
90C312F3822203D2031272D3022000000000000300FC000000000000284000
  0
ACAD_PROXY_OBJECT
  5
5F
102
{ACAD_REACTORS
330
47
102
}
330
47
100
AcDbProxyObject
 90
      499
 91
      503
 93
      249
310
90D332F313622203D2031272D3022000000000000320FC000000000000284000
  0
ACAD_PROXY_OBJECT
  5
60
102
{ACAD_REACTORS
330
47
102
}
330
47
100
AcDbProxyObject
 90
      499
 91
      503
 93
      241
310
90C312F3422203D2031272D3022000000000000340FC000000000000284000
  0
ACAD_PROXY_OBJECT
  5
61
102
{ACAD_REACTORS
330
47
102
}
330
47
100
AcDbProxyObject
 90
      499
 91
      503
 93
      241
310
90C332F3822203D2031272D3022000000000000360FC000000000000284000
  0
ACAD_PROXY_OBJECT
  5
62
102
{ACAD_REACTORS
330
47
102
}
330
47
100
AcDbProxyObject
 90
      499
 91
      503
 93
      241
310
90C312F3222203D2031272D3022000000000000380FC000000000000284000
  0
ACAD_PROXY_OBJECT
  5
63
102
{ACAD_REACTORS
330
47
102
}
330
47
100
AcDbProxyObject
 90
      499
 91
      503
 93
      241
310
90C332F3422203D2031272D30220000000000003A0FC000000000000284000
  0
ACAD_PROXY_OBJECT
  5
64
102
{ACAD_REACTORS
330
47
102
}
330
47
100
AcDbProxyObject
 90
      499
 91
      503
 93
      161
310
90A3122203D2031272D30224000000000000284000
  0
ACAD_PROXY_OBJECT
  5
65
102
{ACAD_REACTORS
330
47
102
}
330
47
100
AcDbProxyObject
 90
      499
 91
      503
 93
      257
310
90E312D312F3222203D2031272D30220000000000003E0FC000000000000284000
  0
ACAD_PROXY_OBJECT
  5
66
102
{ACAD_REACTORS
330
47
102
}
330
47
100
AcDbProxyObject
 90
      499
 91
      503
 93
      225
310
90A3322203D2031272D302200000000000002100000000000000284000
  0
ACAD_PROXY_OBJECT
  5
67
102
{ACAD_REACTORS
330
47
102
}
330
47
100
AcDbProxyObject
 90
      499
 91
      503
 93
      225
310
90A3622203D2031272D302200000000000006100000000000000284000
  0
ACAD_PROXY_OBJECT
  5
68
102
{ACAD_REACTORS
330
47
102
}
330
47
100
AcDbProxyObject
 90
      499
 91
      503
 93
      249
310
90D31272D3022203D2031272D30220000000000000A100000000000000284000
  0
ACAD_PROXY_OBJECT
  5
2F
102
{ACAD_REACTORS
330
2A
102
}
330
2A
100
AcDbProxyObject
 90
      499
 91
      501
 93
      436
310
42CC9915DA5C99599C985B595049028333333333333E33F0000000000000F90107901411070040501600405405064090741402480A0340
1001
ACAD
1000
AcDbSavedByObjectVersion
1070
     0
  0
ACAD_PROXY_OBJECT
  5
32
102
{ACAD_REACTORS
330
2A
102
}
330
2A
100
AcDbProxyObject
 90
      499
 91
      501
 93
      388
310
4150985CDA58D07406404333333333333E33F0000000000000F90107A41107004050150841D405064090741402480A0350
1001
ACAD
1000
AcDbSavedByObjectVersion
1070
     0
  0
ACAD_PROXY_OBJECT
  5
36
102
{ACAD_REACTORS
330
2A
102
}
330
2A
100
AcDbProxyObject
 90
      499
 91
      501
 93
      428
310
42109C9A59DA1D195B90C409028333333333333E33F0000000000000F9010790141107004050150841D405064090741402480A029950
1001
ACAD
1000
AcDbSavedByObjectVersion
1070
     0
  0
ACAD_PROXY_OBJECT
  5
3A
102
{ACAD_REACTORS
330
2A
102
}
330
2A
100
AcDbProxyObject
 90
      499
 91
      501
 93
      452
310
42D0DBDB1BDC90DA185B99D95104090240C333333333333E33F0000000000000F90108901411070040501508421405064090741402480A0350
1001
ACAD
1000
AcDbSavedByObjectVersion
1070
     0
  0
ACAD_PROXY_OBJECT
  5
34
102
{ACAD_REACTORS
330
2A
102
}
330
2A
100
AcDbProxyObject
 90
      499
 91
      501
 93
      500
310
4290DBDB98D95C1D1D585B10940D028333333333333E33F0000000000000F90107902409070040501000000000018199010841D405064090740C02480A0340
1001
ACAD
1000
AcDbSavedByObjectVersion
1070
     0
  0
ACAD_PROXY_OBJECT
  5
35
102
{ACAD_REACTORS
330
2A
102
}
330
2A
100
AcDbProxyObject
 90
      499
 91
      501
 93
      412
310
40D11A5B50B409028333333333333E33F0000000000000F9010790141107004050150841D405064090741402480A02677FFFFFD0
1001
ACAD
1000
AcDbSavedByObjectVersion
1070
     0
  0
ACAD_PROXY_OBJECT
  5
3D
102
{ACAD_REACTORS
330
2A
102
}
330
2A
100
AcDbProxyObject
 90
      499
 91
      501
 93
      452
310
43115919D950DBDB1BDC93D999916409028333333333333E33F0000000000000F9010790141107004050150841D405064090741402480A0350
1001
ACAD
1000
AcDbSavedByObjectVersion
1070
     0
  0
ACAD_PROXY_OBJECT
  5
39
102
{ACAD_REACTORS
330
2A
102
}
330
2A
100
AcDbProxyObject
 90
      499
 91
      501
 93
      444
310
42D19858D95C185D1D195C9B90F409028333333333333E33F0000000000000F9010790141107004050150841D405064090741402480A0350
1001
ACAD
1000
AcDbSavedByObjectVersion
1070
     0
  0
ACAD_PROXY_OBJECT
  5
2B
102
{ACAD_REACTORS
330
2A
102
}
330
2A
100
AcDbProxyObject
 90
      499
 91
      501
 93
      380
310
41119B185D240901404333333333333E33F0000000000000F9010740A907004050150841D405064090741402480A1B50
1001
ACAD
1000
AcDbSavedByObjectVersion
1070
     0
  0
ACAD_PROXY_OBJECT
  5
2C
102
{ACAD_REACTORS
330
2A
102
}
330
2A
100
AcDbProxyObject
 90
      499
 91
      501
 93
      468
310
43519B185D15DA5D1A115919D95CD0140901404333333333333E33F0000000000000F90107409019070040501600405405064090741402480A1B50
1001
ACAD
1000
AcDbSavedByObjectVersion
1070
     0
  0
ACAD_PROXY_OBJECT
  5
2D
102
{ACAD_REACTORS
330
2A
102
}
330
2A
100
AcDbProxyObject
 90
      499
 91
      501
 93
      404
310
41D1DBDD5C985D5910240902404333333333333E33F0000000000000F9010740A9070040501641D405064090741402480A1B50
1001
ACAD
1000
AcDbSavedByObjectVersion
1070
     0
  0
ACAD_PROXY_OBJECT
  5
2E
102
{ACAD_REACTORS
330
2A
102
}
330
2A
100
AcDbProxyObject
 90
      499
 91
      501
 93
      492
310
4411DBDD5C985D5915DA5D1A115919D95CD0340902404333333333333E33F0000000000000F90107409019070040501600405405064090741402480A1B50
1001
ACAD
1000
AcDbSavedByObjectVersion
1070
     0
  0
ACAD_PROXY_OBJECT
  5
31
102
{ACAD_REACTORS
330
2A
102
}
330
2A
100
AcDbProxyObject
 90
      499
 91
      501
 93
      476
310
41921A5919195B90640502408333333333333E33F0000000000000F901079024090700405020000000000001110200405405064090740C02480A0340
1001
ACAD
1000
AcDbSavedByObjectVersion
1070
     0
  0
ACAD_PROXY_OBJECT
  5
3B
102
{ACAD_REACTORS
330
2A
102
}
330
2A
100
AcDbProxyObject
 90
      499
 91
      501
 93
      428
310
42529A5D1D195C93D999914409028333333333333E33F0000000000000F9010790141107004050150A41D405064090741402480A0350
1001
ACAD
1000
AcDbSavedByObjectVersion
1070
     0
  0
ACAD_PROXY_OBJECT
  5
38
102
{ACAD_REACTORS
330
2A
102
}
330
2A
100
AcDbProxyObject
 90
      499
 91
      501
 93
      444
310
42D31A5B995C185D1D195C9B90E409028333333333333E33F0000000000000F9010790141107004050750841D405064090741402483A0350
1001
ACAD
1000
AcDbSavedByObjectVersion
1070
     0
  0
ACAD_PROXY_OBJECT
  5
3C
102
{ACAD_REACTORS
330
2A
102
}
330
2A
100
AcDbProxyObject
 90
      499
 91
      501
 93
      444
310
42D3DD995C9A185B99D3D999915409028333333333333E33F0000000000000F9010790141107004050150941D405064090741402480A0350
1001
ACAD
1000
AcDbSavedByObjectVersion
1070
     0
  0
ACAD_PROXY_OBJECT
  5
33
102
{ACAD_REACTORS
330
2A
102
}
330
2A
100
AcDbProxyObject
 90
      499
 91
      501
 93
      428
310
425499585B1A5CDD1A58D08409038333333333333E33F0000000000000F9010740A907004050150800405405064090740C02480A1B40
1001
ACAD
1000
AcDbSavedByObjectVersion
1070
     0
  0
ACAD_PROXY_OBJECT
  5
42
102
{ACAD_REACTORS
330
2A
102
}
330
2A
100
AcDbProxyObject
 90
      499
 91
      501
 93
      420
310
4194DA1859195911B40902404333333333333E33F0000000000000F9010740A41107004050150800405405064090840C02480A0B40
1001
ACAD
1000
AcDbSavedByObjectVersion
1070
     0
  0
ACAD_PROXY_OBJECT
  5
41
102
{ACAD_REACTORS
330
2A
102
}
330
2A
100
AcDbProxyObject
 90
      499
 91
      501
 93
      516
310
4454DA18591959081DDA5D1A08195919D95CD1A40902404333333333333E33F0000000000000F901074090142907004050250800405405064090740C02480A0B40
1001
ACAD
1000
AcDbSavedByObjectVersion
1070
     0
  0
ACAD_PROXY_OBJECT
  5
3E
102
{ACAD_REACTORS
330
2A
102
}
330
2A
100
AcDbProxyObject
 90
      499
 91
      501
 93
      532
310
4394DA1859195CC81BD98811DC985E5174090240C333333333333E33F0000000000000F901079024090741D01000000000000111010841D405064090740C02480A0340
1001
ACAD
1000
AcDbSavedByObjectVersion
1070
     0
  0
ACAD_PROXY_OBJECT
  5
3F
102
{ACAD_REACTORS
330
2A
102
}
330
2A
100
AcDbProxyObject
 90
      499
 91
      501
 93
      476
310
41D4DAD95D18DA1E51840502408333333333333E33F0000000000000F901079024090741D01000000000000111010B41D405064090741802480A0340
1001
ACAD
1000
AcDbSavedByObjectVersion
1070
     0
  0
ACAD_PROXY_OBJECT
  5
37
102
{ACAD_REACTORS
330
2A
102
}
330
2A
100
AcDbProxyObject
 90
      499
 91
      501
 93
      412
310
41D51A1A58DAD95B90D409028333333333333E33F0000000000000F9010790141107004050150C41D405064090741402480A0350
1001
ACAD
1000
AcDbSavedByObjectVersion
1070
     0
  0
ACAD_PROXY_OBJECT
  5
30
102
{ACAD_REACTORS
330
2A
102
}
330
2A
100
AcDbProxyObject
 90
      499
 91
      501
 93
      420
310
4255DA5C99599C985B595059028333333333333E33F0000000000000F90107901411070040501600405405064090740C02480A0340
1001
ACAD
1000
AcDbSavedByObjectVersion
1070
     0
  0
ACAD_PROXY_OBJECT
  5
40
102
{ACAD_REACTORS
330
2A
102
}
330
2A
100
AcDbProxyObject
 90
      499
 91
      501
 93
      404
310
41560B54985E51940902404000000000000E03F0000000000000F9010740501907004050150841D405064090740C02480A1B40
1001
ACAD
1000
AcDbSavedByObjectVersion
1070
     0
  0
XRECORD
  5
15B
102
{ACAD_REACTORS
330
151
102
}
330
151
100
AcDbXrecord
340
0
  0
XRECORD
  5
15A
102
{ACAD_REACTORS
330
151
102
}
330
151
100
AcDbXrecord
 90
        0
  0
XRECORD
  5
171
102
{ACAD_REACTORS
330
151
102
}
330
151
100
AcDbXrecord
1000
DSTYLE
1002
{
1070
   171
 70
     2
1070
   143
 40
25.4
1070
   274
 70
     2
1070
    41
 40
0.18
1070
   141
 40
0.09
1070
   271
 70
     4
1070
    43
 40
0.38
1070
   278
 70
    46
1070
    44
 40
0.18
1070
    42
 40
0.0625
1070
   147
 40
0.09
1070
    77
 70
     0
1070
   272
 70
     4
1070
    73
 70
     1
1070
   172
 70
     0
1070
    74
 70
     1
1070
   283
 70
     1
1070
   340
340
11
1070
   140
 40
0.18
1070
   284
 70
     0
1070
    78
 70
     0
1002
}
  0
XRECORD
  5
15C
102
{ACAD_REACTORS
330
151
102
}
330
151
100
AcDbXrecord
  1
{FD10E0E6-D4A4-4FE5-A299-4EBCC41344C3}
  0
XRECORD
  5
154
102
{ACAD_REACTORS
330
151
102
}
330
151
100
AcDbXrecord
  1

  0
XRECORD
  5
159
102
{ACAD_REACTORS
330
151
102
}
330
151
100
AcDbXrecord
 90
        4
  0
XRECORD
  5
156
102
{ACAD_REACTORS
330
151
102
}
330
151
100
AcDbXrecord
340
1A
  0
XRECORD
  5
158
102
{ACAD_REACTORS
330
151
102
}
330
151
100
AcDbXrecord
 90
    10781
  0
XRECORD
  5
157
102
{ACAD_REACTORS
330
151
102
}
330
151
100
AcDbXrecord
340
19
  0
XRECORD
  5
15E
102
{ACAD_REACTORS
330
151
102
}
330
151
100
AcDbXrecord
 40
0.0
  0
XRECORD
  5
161
102
{ACAD_REACTORS
330
151
102
}
330
151
100
AcDbXrecord
340
0
  0
XRECORD
  5
167
102
{ACAD_REACTORS
330
151
102
}
330
151
100
AcDbXrecord
 10
0.0
 20
0.0
 30
0.0
  0
XRECORD
  5
163
102
{ACAD_REACTORS
330
151
102
}
330
151
100
AcDbXrecord
 10
0.0
 20
0.0
 30
0.0
  0
XRECORD
  5
166
102
{ACAD_REACTORS
330
151
102
}
330
151
100
AcDbXrecord
 10
0.0
 20
0.0
 30
0.0
  0
XRECORD
  5
164
102
{ACAD_REACTORS
330
151
102
}
330
151
100
AcDbXrecord
 10
0.0
 20
0.0
 30
0.0
  0
XRECORD
  5
165
102
{ACAD_REACTORS
330
151
102
}
330
151
100
AcDbXrecord
 10
0.0
 20
0.0
 30
0.0
  0
XRECORD
  5
162
102
{ACAD_REACTORS
330
151
102
}
330
151
100
AcDbXrecord
 10
0.0
 20
0.0
 30
0.0
  0
XRECORD
  5
15F
102
{ACAD_REACTORS
330
151
102
}
330
151
100
AcDbXrecord
340
0
  0
XRECORD
  5
160
102
{ACAD_REACTORS
330
151
102
}
330
151
100
AcDbXrecord
 70
     0
  0
XRECORD
  5
155
102
{ACAD_REACTORS
330
151
102
}
330
151
100
AcDbXrecord
  1

  0
XRECORD
  5
152
102
{ACAD_REACTORS
330
151
102
}
330
151
100
AcDbXrecord
 90
        1
  0
XRECORD
  5
153
102
{ACAD_REACTORS
330
151
102
}
330
151
100
AcDbXrecord
 90
       70
  0
XRECORD
  5
16A
102
{ACAD_REACTORS
330
151
102
}
330
151
100
AcDbXrecord
340
0
  0
XRECORD
  5
170
102
{ACAD_REACTORS
330
151
102
}
330
151
100
AcDbXrecord
 10
0.0
 20
0.0
 30
0.0
  0
XRECORD
  5
16C
102
{ACAD_REACTORS
330
151
102
}
330
151
100
AcDbXrecord
 10
0.0
 20
0.0
 30
0.0
  0
XRECORD
  5
16F
102
{ACAD_REACTORS
330
151
102
}
330
151
100
AcDbXrecord
 10
0.0
 20
0.0
 30
0.0
  0
XRECORD
  5
16D
102
{ACAD_REACTORS
330
151
102
}
330
151
100
AcDbXrecord
 10
0.0
 20
0.0
 30
0.0
  0
XRECORD
  5
16E
102
{ACAD_REACTORS
330
151
102
}
330
151
100
AcDbXrecord
 10
0.0
 20
0.0
 30
0.0
  0
XRECORD
  5
16B
102
{ACAD_REACTORS
330
151
102
}
330
151
100
AcDbXrecord
 10
0.0
 20
0.0
 30
0.0
  0
XRECORD
  5
168
102
{ACAD_REACTORS
330
151
102
}
330
151
100
AcDbXrecord
340
0
  0
XRECORD
  5
169
102
{ACAD_REACTORS
330
151
102
}
330
151
100
AcDbXrecord
 70
     0
  0
XRECORD
  5
15D
102
{ACAD_REACTORS
330
151
102
}
330
151
100
AcDbXrecord
  1
{FAEB1C32-E019-11D5-929B-00C0DF256EC4}
  0
DICTIONARYVAR
  5
17B
102
{ACAD_REACTORS
330
172
102
}
330
172
100
DictionaryVariables
280
     0
  1
1:1
  0
DICTIONARYVAR
  5
174
102
{ACAD_REACTORS
330
172
102
}
330
172
100
DictionaryVariables
280
     0
  1
Standard
  0
DICTIONARYVAR
  5
173
102
{ACAD_REACTORS
330
172
102
}
330
172
100
DictionaryVariables
280
     0
  1
Standard
  0
DICTIONARYVAR
  5
177
102
{ACAD_REACTORS
330
172
102
}
330
172
100
DictionaryVariables
280
     0
  1
2
  0
DICTIONARYVAR
  5
178
102
{ACAD_REACTORS
330
172
102
}
330
172
100
DictionaryVariables
280
     0
  1
1
  0
DICTIONARYVAR
  5
17C
102
{ACAD_REACTORS
330
172
102
}
330
172
100
DictionaryVariables
280
     0
  1
1
  0
DICTIONARY
  5
17F
330
45
100
AcDbDictionary
280
     1
  3
ACAD_XREC_ROUNDTRIP
360
180
  0
DICTIONARY
  5
17D
330
44
100
AcDbDictionary
280
     1
  3
ACAD_XREC_ROUNDTRIP
360
17E
  0
DICTIONARY
  5
181
330
46
100
AcDbDictionary
280
     1
  3
ACAD_XREC_ROUNDTRIP
360
182
  0
XRECORD
  5
180
102
{ACAD_REACTORS
330
17F
102
}
330
17F
100
AcDbXrecord
102
MATERIAL
148
0.0
149
0.0
149
0.0
 93
        0
 94
      127
282
     0
 72
     1
 77
     1
171
     1
175
     1
179
     1
273
     0
  0
XRECORD
  5
17E
102
{ACAD_REACTORS
330
17D
102
}
330
17D
100
AcDbXrecord
102
MATERIAL
148
0.0
149
0.0
149
0.0
 93
        0
 94
      127
282
     0
 72
     1
 77
     1
171
     1
175
     1
179
     1
273
     0
  0
XRECORD
  5
182
102
{ACAD_REACTORS
330
181
102
}
330
181
100
AcDbXrecord
102
MATERIAL
148
0.0
149
0.0
149
0.0
 93
        0
 94
      127
282
     0
 72
     1
 77
     1
171
     1
175
     1
179
     1
273
     0
  0
ENDSEC
  0
EOF
