<?xml version="1.0" encoding="UTF-8" standalone="no"?>
<svg
   xmlns:dc="http://purl.org/dc/elements/1.1/"
   xmlns:cc="http://creativecommons.org/ns#"
   xmlns:rdf="http://www.w3.org/1999/02/22-rdf-syntax-ns#"
   xmlns:svg="http://www.w3.org/2000/svg"
   xmlns="http://www.w3.org/2000/svg"
   xmlns:sodipodi="http://sodipodi.sourceforge.net/DTD/sodipodi-0.dtd"
   xmlns:inkscape="http://www.inkscape.org/namespaces/inkscape"
   width="340.15741"
   height="72.596313"
   version="1.1"
   id="svg1287"
   sodipodi:docname="Barhocker_Splint.svg"
   inkscape:version="0.92.2 (5c3e80d, 2017-08-06)">
  <metadata
     id="metadata1291">
    <rdf:RDF>
      <cc:Work
         rdf:about="">
        <dc:format>image/svg+xml</dc:format>
        <dc:type
           rdf:resource="http://purl.org/dc/dcmitype/StillImage" />
        <dc:title></dc:title>
      </cc:Work>
    </rdf:RDF>
  </metadata>
  <sodipodi:namedview
     pagecolor="#ffffff"
     bordercolor="#666666"
     borderopacity="1"
     objecttolerance="10"
     gridtolerance="10"
     guidetolerance="10"
     inkscape:pageopacity="0"
     inkscape:pageshadow="2"
     inkscape:window-width="1366"
     inkscape:window-height="749"
     id="namedview1289"
     showgrid="false"
     inkscape:measure-start="98.0672,1288.88"
     inkscape:measure-end="92.583,110.356"
     inkscape:zoom="1.4687642"
     inkscape:cx="127.45876"
     inkscape:cy="14.056635"
     inkscape:window-x="-4"
     inkscape:window-y="-4"
     inkscape:window-maximized="1"
     inkscape:current-layer="g1281" />
  <desc
     id="desc815">C:\Users\Andreas Reheis\Documents\CNC\Projekte\Barhocker\Barhocker.dxf - scale = 1.000000, origin = (0.000000, 0.000000), method = file</desc>
  <defs
     id="defs829">
    <marker
       id="DistanceX"
       orient="auto"
       refX="0"
       refY="0"
       style="overflow:visible">
      <path
         d="M 3,-3 -3,3 M 0,-5 V 5"
         style="stroke:#000000;stroke-width:0.5"
         id="path817"
         inkscape:connector-curvature="0" />
    </marker>
    <pattern
       height="8"
       id="Hatch"
       patternUnits="userSpaceOnUse"
       width="8"
       x="0"
       y="0">
      <path
         d="M8 4 l-4,4"
         linecap="square"
         stroke="#000000"
         stroke-width="0.25"
         id="path820" />
      <path
         d="M6 2 l-4,4"
         linecap="square"
         stroke="#000000"
         stroke-width="0.25"
         id="path822" />
      <path
         d="M4 0 l-4,4"
         linecap="square"
         stroke="#000000"
         stroke-width="0.25"
         id="path824" />
    </pattern>
    <symbol
       id="*MODEL_SPACE" />
    <symbol
       id="*PAPER_SPACE" />
  </defs>
  <g
     inkscape:groupmode="layer"
     inkscape:label="0"
     id="g1281"
     style="display:inline"
     transform="translate(-688.44778,-2224.1641)">
    <path
       id="path1081"
       style="fill:none;stroke:#000000;stroke-width:1.07686365;stroke-miterlimit:4;stroke-dasharray:none"
       d="m 756.8587,2242.9231 z m -3.63549,3.7927 z m 3.60587,-10.6273 -0.14268,-0.5501 -0.20784,-0.5265 -0.27998,-0.4912 -0.34567,-0.447 -0.40652,-0.3935 -0.46413,-0.3321 -0.49536,-0.2642 -0.53304,-0.191 -0.55728,-0.1141 -60.86487,-6.0666 -0.52713,0.018 -0.51689,0.1044 -0.49428,0.1807 -0.4609,0.2543 -0.41728,0.322 -0.36398,0.3826 -0.3026,0.4329 -0.22937,0.4745 -0.13838,0.5043 -0.0937,0.5214 0.0108,0.5267 0.0108,12.7413 0.11522,0.5223 0.1723,0.5041 0.23799,0.4774 0.29129,0.4425 0.35644,0.4005 0.39952,0.3509 0.44313,0.2958 0.47166,0.2357 0.50559,0.1694 0.5212,0.1066 0.53144,0.033 59.70132,2e-4 0.5492,0.034 0.39844,-0.032 0.6935,-0.1503 0.51904,-0.2156 0.47059,-0.2922 0.41998,-0.3617 0.36506,-0.4217 0.28914,-0.4725 0.21591,-0.5115 0.14753,-0.6945 v -0.9518 l 0.0161,-5.4271 0.056,-0.566 z"
       inkscape:connector-curvature="0"
       sodipodi:nodetypes="ccccccccccccccccccccccccccccccccccccccccccccccccccccc" />
    <path
       id="path1081-9"
       style="display:inline;fill:none;stroke:#000000;stroke-width:1.07686365;stroke-miterlimit:4;stroke-dasharray:none"
       d="m 838.65851,2241.5839 z m -3.63549,3.7927 z m 3.60587,-10.6273 -0.14268,-0.5501 -0.20783,-0.5265 -0.27999,-0.4912 -0.34567,-0.447 -0.40652,-0.3935 -0.46413,-0.3321 -0.49535,-0.2642 -0.53305,-0.191 -0.55728,-0.1141 -60.86487,-6.0666 -0.52712,0.018 -0.5169,0.1044 -0.49428,0.1807 -0.4609,0.2543 -0.41728,0.322 -0.36398,0.3826 -0.3026,0.4329 -0.22937,0.4745 -0.13838,0.5043 -0.0937,0.5215 0.0108,0.5267 0.0108,12.7412 0.11523,0.5223 0.17229,0.5042 0.23799,0.4773 0.29129,0.4425 0.35644,0.4005 0.39952,0.3509 0.44313,0.2959 0.47167,0.2356 0.50558,0.1694 0.52121,0.1066 0.53143,0.033 59.70132,1e-4 0.5492,0.034 0.39844,-0.032 0.6935,-0.1503 0.51905,-0.2156 0.47059,-0.2921 0.41997,-0.3618 0.36506,-0.4217 0.28914,-0.4725 0.21591,-0.5115 0.14753,-0.6945 v -0.9518 l 0.0162,-5.4271 0.056,-0.566 z"
       inkscape:connector-curvature="0"
       sodipodi:nodetypes="ccccccccccccccccccccccccccccccccccccccccccccccccccccc" />
    <path
       id="path1081-0"
       style="display:inline;fill:none;stroke:#000000;stroke-width:1.07686365;stroke-miterlimit:4;stroke-dasharray:none"
       d="m 932.85255,2242.2535 z m -3.63549,3.7927 z m 3.60587,-10.6273 -0.14268,-0.5501 -0.20784,-0.5265 -0.27998,-0.4912 -0.34567,-0.447 -0.40652,-0.3935 -0.46413,-0.3321 -0.49536,-0.2642 -0.53304,-0.191 -0.55728,-0.1141 -60.86487,-6.0666 -0.52713,0.018 -0.51689,0.1044 -0.49428,0.1807 -0.4609,0.2543 -0.41728,0.322 -0.36398,0.3826 -0.3026,0.4329 -0.22937,0.4745 -0.13838,0.5043 -0.0937,0.5215 0.0108,0.5266 0.0108,12.7413 0.11522,0.5223 0.1723,0.5041 0.23799,0.4774 0.29129,0.4425 0.35644,0.4005 0.39952,0.3509 0.44313,0.2959 0.47166,0.2356 0.50559,0.1694 0.5212,0.1066 0.53144,0.033 59.70132,10e-5 0.5492,0.034 0.39844,-0.032 0.6935,-0.1503 0.51904,-0.2156 0.47059,-0.2922 0.41998,-0.3617 0.36506,-0.4217 0.28914,-0.4725 0.21591,-0.5115 0.14753,-0.6945 v -0.9518 l 0.0162,-5.4271 0.056,-0.566 z"
       inkscape:connector-curvature="0"
       sodipodi:nodetypes="ccccccccccccccccccccccccccccccccccccccccccccccccccccc" />
    <path
       id="path1081-9-7"
       style="display:inline;fill:none;stroke:#000000;stroke-width:1.07686365;stroke-miterlimit:4;stroke-dasharray:none"
       d="m 1014.6524,2240.9143 z m -3.6355,3.7927 z m 3.6058,-10.6273 -0.1426,-0.5501 -0.2079,-0.5265 -0.28,-0.4912 -0.3456,-0.447 -0.4065,-0.3935 -0.4642,-0.3321 -0.4953,-0.2642 -0.5331,-0.191 -0.5573,-0.1141 -60.86483,-6.0666 -0.52712,0.018 -0.5169,0.1044 -0.49428,0.1807 -0.4609,0.2543 -0.41728,0.322 -0.36398,0.3826 -0.3026,0.4329 -0.22937,0.4746 -0.13838,0.5042 -0.0937,0.5215 0.0108,0.5267 0.0108,12.7412 0.11523,0.5223 0.17229,0.5042 0.23799,0.4773 0.29129,0.4425 0.35644,0.4005 0.39952,0.351 0.44313,0.2958 0.47167,0.2356 0.50558,0.1694 0.52121,0.1066 0.53143,0.033 59.70136,1e-4 0.5492,0.034 0.3984,-0.032 0.6935,-0.1503 0.5191,-0.2156 0.4706,-0.2921 0.42,-0.3618 0.365,-0.4217 0.2892,-0.4725 0.2159,-0.5115 0.1475,-0.6945 v -0.9518 l 0.016,-5.4271 0.056,-0.566 z"
       inkscape:connector-curvature="0"
       sodipodi:nodetypes="ccccccccccccccccccccccccccccccccccccccccccccccccccccc" />
    <path
       id="path1081-6"
       style="display:inline;fill:none;stroke:#000000;stroke-width:1.07686365;stroke-miterlimit:4;stroke-dasharray:none"
       d="m 770.23226,2292.3961 z m -3.6355,3.7927 z m 3.60588,-10.6272 -0.14268,-0.5502 -0.20784,-0.5265 -0.27998,-0.4911 -0.34567,-0.447 -0.40652,-0.3935 -0.46413,-0.3321 -0.49536,-0.2643 -0.53304,-0.1909 -0.55728,-0.1142 -60.86486,-6.0666 -0.52713,0.018 -0.51689,0.1045 -0.49428,0.1807 -0.4609,0.2542 -0.41728,0.322 -0.36398,0.3826 -0.3026,0.4329 -0.22937,0.4746 -0.13838,0.5043 -0.0937,0.5214 0.0108,0.5267 0.0108,12.7412 0.11522,0.5223 0.1723,0.5042 0.23799,0.4774 0.29129,0.4425 0.35644,0.4004 0.39952,0.351 0.44313,0.2958 0.47166,0.2356 0.50559,0.1694 0.5212,0.1066 0.53144,0.033 59.70131,1e-4 0.5492,0.034 0.39844,-0.032 0.6935,-0.1504 0.51904,-0.2156 0.47059,-0.2921 0.41998,-0.3617 0.36506,-0.4217 0.28913,-0.4726 0.21592,-0.5115 0.14753,-0.6944 v -0.9519 l 0.0161,-5.427 0.056,-0.566 z"
       inkscape:connector-curvature="0"
       sodipodi:nodetypes="ccccccccccccccccccccccccccccccccccccccccccccccccccccc" />
    <path
       id="path1081-9-1"
       style="display:inline;fill:none;stroke:#000000;stroke-width:1.07686365;stroke-miterlimit:4;stroke-dasharray:none"
       d="m 852.03211,2291.0569 z m -3.63549,3.7927 z m 3.60588,-10.6272 -0.14269,-0.5502 -0.20783,-0.5265 -0.27999,-0.4911 -0.34567,-0.447 -0.40652,-0.3935 -0.46412,-0.3321 -0.49536,-0.2643 -0.53305,-0.1909 -0.55728,-0.1142 -60.86487,-6.0666 -0.52712,0.018 -0.5169,0.1045 -0.49428,0.1807 -0.4609,0.2542 -0.41728,0.322 -0.36398,0.3826 -0.3026,0.4329 -0.22937,0.4746 -0.13838,0.5043 -0.0937,0.5214 0.0108,0.5267 0.0108,12.7412 0.11523,0.5223 0.1723,0.5042 0.23798,0.4774 0.29129,0.4425 0.35645,0.4005 0.39951,0.3509 0.44313,0.2958 0.47167,0.2356 0.50559,0.1694 0.5212,0.1066 0.53143,0.033 59.70132,1e-4 0.5492,0.034 0.39844,-0.032 0.6935,-0.1504 0.51905,-0.2155 0.47059,-0.2922 0.41997,-0.3617 0.36506,-0.4217 0.28914,-0.4725 0.21591,-0.5116 0.14753,-0.6944 v -0.9519 l 0.0161,-5.427 0.056,-0.566 z"
       inkscape:connector-curvature="0"
       sodipodi:nodetypes="ccccccccccccccccccccccccccccccccccccccccccccccccccccc" />
    <path
       id="path1081-0-0"
       style="display:inline;fill:none;stroke:#000000;stroke-width:1.07686365;stroke-miterlimit:4;stroke-dasharray:none"
       d="m 946.22613,2291.7265 z m -3.63549,3.7927 z m 3.60587,-10.6272 -0.14268,-0.5502 -0.20784,-0.5265 -0.27998,-0.4911 -0.34567,-0.447 -0.40652,-0.3935 -0.46413,-0.3321 -0.49535,-0.2643 -0.53305,-0.1909 -0.55728,-0.1142 -60.86487,-6.0666 -0.52713,0.018 -0.51689,0.1045 -0.49428,0.1807 -0.4609,0.2542 -0.41728,0.322 -0.36398,0.3826 -0.3026,0.4329 -0.22937,0.4746 -0.13838,0.5043 -0.0937,0.5214 0.0108,0.5267 0.0108,12.7412 0.11522,0.5223 0.1723,0.5042 0.23799,0.4774 0.29129,0.4425 0.35644,0.4004 0.39952,0.351 0.44313,0.2958 0.47166,0.2356 0.50559,0.1694 0.5212,0.1066 0.53144,0.033 59.70132,10e-5 0.5492,0.035 0.39844,-0.032 0.6935,-0.1504 0.51905,-0.2155 0.47058,-0.2922 0.41998,-0.3617 0.36506,-0.4217 0.28914,-0.4725 0.21591,-0.5116 0.14753,-0.6944 v -0.9519 l 0.0161,-5.427 0.056,-0.566 z"
       inkscape:connector-curvature="0"
       sodipodi:nodetypes="ccccccccccccccccccccccccccccccccccccccccccccccccccccc" />
    <path
       id="path1081-9-7-3"
       style="display:inline;fill:none;stroke:#000000;stroke-width:1.07686365;stroke-miterlimit:4;stroke-dasharray:none"
       d="m 1028.026,2290.3873 z m -3.6355,3.7927 z m 3.6059,-10.6272 -0.1427,-0.5502 -0.2079,-0.5265 -0.2799,-0.4911 -0.3457,-0.447 -0.4065,-0.3935 -0.4642,-0.3321 -0.4953,-0.2643 -0.5331,-0.1909 -0.5572,-0.1141 -60.86491,-6.0667 -0.52712,0.018 -0.5169,0.1045 -0.49428,0.1807 -0.46089,0.2542 -0.41729,0.322 -0.36398,0.3826 -0.3026,0.4329 -0.22937,0.4746 -0.13838,0.5043 -0.0937,0.5214 0.0108,0.5267 0.0108,12.7412 0.11523,0.5223 0.1723,0.5042 0.23798,0.4774 0.2913,0.4425 0.35644,0.4005 0.39951,0.3509 0.44313,0.2958 0.47167,0.2356 0.50559,0.1694 0.5212,0.1066 0.53143,0.033 59.70124,10e-5 0.5492,0.035 0.3985,-0.032 0.6935,-0.1503 0.519,-0.2156 0.4707,-0.2922 0.42,-0.3617 0.365,-0.4217 0.2892,-0.4725 0.2159,-0.5115 0.1475,-0.6945 v -0.9519 l 0.016,-5.427 0.056,-0.566 z"
       inkscape:connector-curvature="0"
       sodipodi:nodetypes="ccccccccccccccccccccccccccccccccccccccccccccccccccccc" />
  </g>
  <g
     inkscape:groupmode="layer"
     id="layer2"
     inkscape:label="Folie"
     style="display:none"
     transform="translate(-604.54312,-584.04599)">
    <rect
       style="display:inline;fill:none;fill-opacity:1;fill-rule:evenodd;stroke:#000000;stroke-width:1;stroke-miterlimit:4;stroke-dasharray:none;stroke-opacity:1"
       id="rect1648"
       width="437.5181"
       height="566.92914"
       x="607.37653"
       y="626.40491" />
  </g>
  <g
     inkscape:groupmode="layer"
     id="layer1"
     inkscape:label="Material"
     transform="translate(-688.44778,-2224.1641)"
     style="display:none">
    <rect
       style="display:inline;fill:none;fill-opacity:1;fill-rule:evenodd;stroke:#16ffff;stroke-width:1.30393696;stroke-miterlimit:4;stroke-dasharray:none;stroke-opacity:1"
       id="rect1293"
       width="1058.2677"
       height="1311.9916"
       x="84.556625"
       y="1640.77" />
  </g>
</svg>
